<?xml version="1.0" encoding="UTF-8" standalone="no"?> <svg width="512" height="512" viewBox="0 0 512 512" fill="none" xmlns="http://www.w3.org/2000/svg">
<path d="M153.132 344.08L97.132 336.08C95.9973 335.918 94.8409 336.001 93.7413 336.325C92.6417 336.649 91.6244 337.205 90.7584 337.956C89.8925 338.707 89.198 339.635 88.7221 340.678C88.2462 341.721 87.9999 342.854 88 344V368H80C75.2533 368 70.6131 369.408 66.6663 372.045C62.7195 374.682 59.6434 378.43 57.8269 382.816C56.0104 387.201 55.5351 392.027 56.4612 396.682C57.3872 401.338 59.673 405.614 63.0294 408.971C66.3859 412.327 70.6623 414.613 75.3178 415.539C79.9734 416.465 84.799 415.99 89.1844 414.173C93.5698 412.357 97.3181 409.28 99.9553 405.334C102.592 401.387 104 396.747 104 392V353.224L144 358.938V376H136C131.253 376 126.613 377.408 122.666 380.045C118.72 382.682 115.643 386.43 113.827 390.816C112.01 395.201 111.535 400.027 112.461 404.682C113.387 409.338 115.673 413.614 119.029 416.971C122.386 420.327 126.662 422.613 131.318 423.539C135.973 424.465 140.799 423.99 145.184 422.173C149.57 420.357 153.318 417.28 155.955 413.334C158.592 409.387 160 404.747 160 400V352C160 350.074 159.306 348.213 158.044 346.758C156.782 345.303 155.038 344.353 153.132 344.08ZM88 392C88 393.582 87.5308 395.129 86.6518 396.445C85.7727 397.76 84.5233 398.786 83.0615 399.391C81.5997 399.997 79.9911 400.155 78.4393 399.846C76.8874 399.538 75.462 398.776 74.3432 397.657C73.2243 396.538 72.4624 395.113 72.1537 393.561C71.845 392.009 72.0035 390.4 72.609 388.939C73.2145 387.477 74.2399 386.227 75.5554 385.348C76.871 384.469 78.4178 384 80 384H88V392ZM144 400C144 401.582 143.531 403.129 142.652 404.445C141.773 405.76 140.523 406.786 139.061 407.391C137.6 407.997 135.991 408.155 134.439 407.846C132.887 407.538 131.462 406.776 130.343 405.657C129.224 404.538 128.462 403.113 128.154 401.561C127.845 400.009 128.003 398.4 128.609 396.939C129.214 395.477 130.24 394.227 131.555 393.348C132.871 392.469 134.418 392 136 392H144V400ZM473.94 240.239L448 233.754V226.246L470.06 231.761C472.112 232.258 474.278 231.924 476.085 230.831C477.892 229.738 479.194 227.975 479.706 225.926C480.218 223.877 479.899 221.709 478.819 219.895C477.739 218.08 475.985 216.766 473.94 216.239L441.94 208.239C440.761 207.944 439.529 207.922 438.34 208.174C437.151 208.427 436.035 208.946 435.077 209.695C434.118 210.443 433.343 211.399 432.81 212.492C432.277 213.585 432 214.784 432 216V248H424C419.253 248 414.613 249.408 410.666 252.045C406.72 254.682 403.643 258.43 401.827 262.816C400.01 267.201 399.535 272.027 400.461 276.682C401.387 281.338 403.673 285.614 407.029 288.971C410.386 292.327 414.662 294.613 419.318 295.539C423.973 296.465 428.799 295.99 433.184 294.173C437.57 292.357 441.318 289.28 443.955 285.334C446.592 281.387 448 276.747 448 272V250.246L470.06 255.761C472.112 256.258 474.278 255.924 476.085 254.831C477.892 253.738 479.194 251.975 479.706 249.926C480.218 247.877 479.899 245.709 478.819 243.895C477.739 242.08 475.985 240.766 473.94 240.239V240.239ZM432 272C432 273.582 431.531 275.129 430.652 276.445C429.773 277.76 428.523 278.786 427.061 279.391C425.6 279.997 423.991 280.155 422.439 279.846C420.887 279.538 419.462 278.776 418.343 277.657C417.224 276.538 416.462 275.113 416.154 273.561C415.845 272.009 416.003 270.4 416.609 268.939C417.214 267.477 418.24 266.227 419.555 265.348C420.871 264.469 422.418 264 424 264H432V272ZM392 72V40C392 38.7579 391.711 37.5329 391.155 36.422L383.155 20.422C382.491 19.0933 381.469 17.9758 380.206 17.1948C378.942 16.4138 377.486 16.0001 376 16H352C349.878 16 347.843 16.8429 346.343 18.3432C344.843 19.8435 344 21.8783 344 24V38.111L336.845 52.422C336.289 53.533 336 54.758 336 56C336 57.2421 336.289 58.4671 336.845 59.578L343.617 73.123L337.065 105.879L296.35 119.45L282.612 113.58L275.532 102.961C278.615 99.9846 281.067 96.4175 282.742 92.4725C284.416 88.5275 285.278 84.2856 285.277 80V43.777C285.277 37.5196 283.164 31.4453 279.281 26.5386C275.398 21.6318 269.972 18.1799 263.882 16.7423C257.792 15.3047 251.394 15.9655 245.727 18.6177C240.059 21.2699 235.453 25.7581 232.655 31.355L232.269 32.127C227.198 32.626 222.373 34.5549 218.356 37.6892C214.339 40.8235 211.294 45.0344 209.577 49.8316C207.86 54.6288 207.54 59.8152 208.656 64.7869C209.771 69.7587 212.276 74.3113 215.878 77.915L221.478 83.515C222.221 90.2705 225.102 96.6121 229.702 101.615L225.679 113.683C225.679 113.683 204.816 120.683 204.579 120.799C204.458 120.856 132.121 161.015 132.121 161.015C131.107 161.578 130.228 162.355 129.544 163.291C128.861 164.228 128.389 165.302 128.161 166.439L112.161 246.439C112.056 246.953 112.003 247.476 112 248V272C112 273.784 112.596 275.517 113.695 276.923C114.793 278.33 116.329 279.328 118.06 279.761L150.06 287.761C151.826 288.204 153.69 288.031 155.344 287.27C156.997 286.509 158.342 285.207 159.155 283.578L167.155 267.578C167.711 266.467 168 265.242 168 264C168 262.758 167.711 261.533 167.155 260.422L160.547 247.206L174.824 197.235L205.924 178.573L214.01 189.354C220.473 198.005 223.976 208.509 224 219.308V240C224 242.122 224.843 244.157 226.343 245.657C227.843 247.157 229.878 248 232 248H240V264.408C239.979 274.046 243.008 283.443 248.652 291.255L271.122 358.665L233.49 411.35C232.629 412.559 232.123 413.985 232.027 415.466C231.932 416.947 232.251 418.426 232.949 419.736L218.343 434.343C217.236 435.45 216.478 436.858 216.163 438.391C215.848 439.925 215.991 441.517 216.572 442.971L232.572 482.971C233.3 484.79 234.67 486.279 236.422 487.155L252.422 495.155C253.533 495.711 254.758 496 256 496H264C265.051 496 266.091 495.793 267.062 495.391C268.032 494.989 268.914 494.4 269.657 493.657L274.233 489.081L283.891 494.863C285.132 495.607 286.553 496 288 496H320C321.346 496 322.671 495.66 323.85 495.012C325.03 494.364 326.028 493.429 326.75 492.293C327.473 491.157 327.897 489.857 327.983 488.514C328.07 487.171 327.816 485.827 327.245 484.608L310.535 448.908L357.144 385.408C364.22 375.812 368.025 364.197 368 352.274V349.3C367.999 339.15 365.241 329.192 360.02 320.488L320 253.784V220.845C320.016 203.776 315.786 186.972 307.69 171.945L378.971 143.433C380.299 142.902 381.459 142.025 382.333 140.893C383.207 139.761 383.761 138.416 383.938 136.997C383.938 136.997 392 72.332 392 72ZM304 133.767L320 128.433V149.784L304 156.184V133.767ZM266.739 118.615C262.9 121.092 258.391 122.326 253.826 122.149C249.26 121.972 244.86 120.393 241.224 117.627L243.6 110.5C249.438 112.357 255.686 112.495 261.6 110.9L266.739 118.615ZM269.277 80C269.261 83.9699 267.77 87.7921 265.094 90.7241C262.417 93.656 258.747 95.4882 254.795 95.8647C250.843 96.2412 246.892 95.1351 243.71 92.7613C240.528 90.3875 238.342 86.9155 237.577 83.02L256.591 64H269.277V80ZM224.561 55.45C225.282 53.2788 226.669 51.3902 228.526 50.0527C230.382 48.7153 232.612 47.997 234.9 48H237.281C238.767 48.0001 240.223 47.5863 241.487 46.8051C242.751 46.0239 243.773 44.9061 244.437 43.577L246.97 38.511C248.156 36.138 250.109 34.235 252.512 33.1105C254.915 31.986 257.627 31.7057 260.209 32.3151C262.791 32.9246 265.092 34.388 266.739 36.4683C268.385 38.5487 269.281 41.124 269.281 43.777V48H253.281C252.23 48 251.19 48.2069 250.219 48.6089C249.249 49.0109 248.367 49.6002 247.624 50.343L229.277 68.687L227.191 66.6C225.755 65.1728 224.747 63.3718 224.282 61.401C223.817 59.4302 223.914 57.3687 224.561 55.45V55.45ZM200 141.6V163.474L187.309 171.089L178.566 153.5L200 141.6ZM160.308 189.8L144.308 245.8C143.758 247.725 143.95 249.786 144.845 251.576L151.056 264L147.715 270.683L128 265.754V248.792L143.119 173.192L164.565 161.278L173.546 179.339L163.884 185.139C162.144 186.183 160.866 187.849 160.308 189.8V189.8ZM226.815 179.752L216 165.333V133.766L229.972 129.108C236.811 134.899 245.466 138.105 254.428 138.165C263.389 138.225 272.087 135.136 279.003 129.437L288.003 133.281V168C288.003 169.58 288.471 171.124 289.347 172.438C298.917 186.766 304.017 203.614 304 220.845V232H240V219.308C239.97 205.049 235.347 191.179 226.815 179.754V179.752ZM286.51 364.652C287.243 363.625 287.723 362.439 287.911 361.191C288.098 359.944 287.988 358.669 287.59 357.472L274.355 317.772L309.845 353.172L262.073 429.829L250.116 415.6L286.51 364.652ZM257.889 480L246.298 474.2L233.387 441.922L243.143 432.167L253.193 444.123C252.534 445.301 252.185 446.627 252.179 447.976C252.172 449.326 252.509 450.655 253.158 451.838C253.806 453.022 254.745 454.021 255.886 454.743C257.026 455.464 258.332 455.884 259.679 455.962L253.979 468.731C253.181 470.518 253.065 472.535 253.654 474.401C254.242 476.267 255.494 477.853 257.173 478.858L259.073 479.995L257.889 480ZM290.212 480L271.477 468.782L277.188 456H296.188L307.423 480H290.212ZM346.3 328.716C350.03 334.934 352 342.049 352 349.3V352.279C352.018 360.796 349.3 369.093 344.245 375.948L297.226 440H274.586L326.786 356.231C327.743 354.696 328.151 352.882 327.944 351.085C327.737 349.288 326.928 347.614 325.647 346.336L264.647 285.479C259.09 279.876 255.981 272.299 256 264.408V248H304V256C304 257.45 304.394 258.873 305.14 260.116L346.3 328.716ZM376 71.5L368.647 130.323L336 143.384V123.1L346.529 119.59C347.867 119.144 349.064 118.352 349.997 117.295C350.931 116.238 351.568 114.952 351.845 113.569L359.845 73.569C360.194 71.8244 359.951 70.0132 359.155 68.422L352.944 56L359.155 43.578C359.711 42.4672 360 41.2421 360 40V32H371.056L376 41.889V71.5ZM221.657 309.657C220.914 310.4 220.032 310.989 219.062 311.391C218.091 311.793 217.051 312 216 312C214.949 312 213.909 311.793 212.938 311.391C211.968 310.989 211.086 310.4 210.343 309.657L205.656 304.971C201.313 300.651 197.87 295.513 195.526 289.853C193.182 284.194 191.983 278.126 192 272C192 269.878 192.843 267.843 194.343 266.343C195.843 264.843 197.878 264 200 264C202.122 264 204.157 264.843 205.657 266.343C207.157 267.843 208 269.878 208 272C207.989 276.024 208.776 280.009 210.316 283.727C211.856 287.444 214.118 290.819 216.971 293.656L221.657 298.343C222.4 299.086 222.989 299.968 223.391 300.938C223.793 301.909 224 302.949 224 304C224 305.051 223.793 306.091 223.391 307.062C222.989 308.032 222.4 308.914 221.657 309.657V309.657ZM96.41 165.471L98.753 158.441C100.862 152.055 104.216 146.15 108.622 141.069C113.029 135.988 118.399 131.832 124.423 128.841C126.317 127.925 128.495 127.792 130.486 128.47C132.477 129.149 134.121 130.584 135.062 132.466C136.002 134.347 136.164 136.523 135.512 138.523C134.86 140.523 133.446 142.186 131.577 143.151C127.436 145.207 123.745 148.065 120.716 151.558C117.688 155.051 115.382 159.11 113.933 163.5L111.59 170.528C110.919 172.541 109.476 174.205 107.579 175.154C105.681 176.103 103.484 176.26 101.471 175.589C99.458 174.918 97.7939 173.475 96.8448 171.578C95.8957 169.68 95.7393 167.483 96.41 165.47V165.471ZM144.845 127.578C143.896 125.68 143.74 123.484 144.411 121.471C145.082 119.458 146.524 117.794 148.422 116.845L156.422 112.845C157.363 112.365 158.389 112.077 159.442 111.996C160.494 111.915 161.553 112.043 162.556 112.373C163.559 112.703 164.486 113.228 165.285 113.918C166.084 114.608 166.739 115.45 167.211 116.394C167.683 117.338 167.964 118.367 168.037 119.42C168.11 120.473 167.973 121.531 167.635 122.531C167.298 123.531 166.765 124.455 166.069 125.249C165.373 126.042 164.526 126.69 163.578 127.155L155.578 131.155C154.639 131.626 153.616 131.907 152.567 131.982C151.519 132.057 150.467 131.924 149.47 131.592C148.473 131.26 147.551 130.734 146.758 130.046C145.964 129.357 145.314 128.518 144.845 127.578V127.578ZM394.971 170.628C393.001 171.416 390.799 171.389 388.848 170.553C386.898 169.717 385.36 168.141 384.572 166.171C383.784 164.201 383.811 161.999 384.647 160.048C385.483 158.098 387.059 156.56 389.029 155.772C390.457 155.203 391.743 154.328 392.798 153.21C393.853 152.091 394.65 150.756 395.135 149.297L400.41 133.47C400.742 132.473 401.268 131.552 401.956 130.758C402.644 129.964 403.482 129.314 404.422 128.844C405.362 128.374 406.385 128.094 407.433 128.02C408.481 127.945 409.533 128.078 410.53 128.41C411.527 128.742 412.448 129.268 413.242 129.956C414.036 130.644 414.686 131.482 415.156 132.422C415.626 133.362 415.906 134.385 415.98 135.433C416.055 136.481 415.922 137.533 415.59 138.53L410.314 154.356C409.096 158.022 407.091 161.378 404.441 164.188C401.791 166.999 398.559 169.197 394.971 170.628ZM375.428 169.828C375.818 170.803 376.013 171.846 376 172.897C375.987 173.947 375.768 174.985 375.354 175.951C374.94 176.917 374.34 177.791 373.588 178.525C372.837 179.259 371.947 179.838 370.972 180.228L362.972 183.428C361.997 183.818 360.954 184.013 359.903 184C358.853 183.987 357.815 183.768 356.849 183.354C355.883 182.94 355.009 182.34 354.275 181.588C353.541 180.837 352.962 179.947 352.572 178.972C351.784 177.002 351.81 174.8 352.646 172.849C353.482 170.899 355.058 169.36 357.028 168.572L365.028 165.372C366.003 164.982 367.046 164.787 368.097 164.8C369.147 164.813 370.185 165.032 371.151 165.446C372.117 165.86 372.991 166.46 373.725 167.212C374.459 167.963 375.038 168.853 375.428 169.828V169.828ZM192 240V232C192 229.878 192.843 227.843 194.343 226.343C195.843 224.843 197.878 224 200 224C202.122 224 204.157 224.843 205.657 226.343C207.157 227.843 208 229.878 208 232V240C208 242.122 207.157 244.157 205.657 245.657C204.157 247.157 202.122 248 200 248C197.878 248 195.843 247.157 194.343 245.657C192.843 244.157 192 242.122 192 240Z" fill="url(#paint0_linear_3_5981)"/>
<defs>
<linearGradient id="paint0_linear_3_5981" x1="94.245" y1="440.17" x2="448.864" y2="85.55" gradientUnits="userSpaceOnUse">
<stop stop-color="#41DFD0"/>
<stop offset="1" stop-color="#EE83EF"/>
</linearGradient>
</defs>
</svg>
