<?xml version="1.0" encoding="utf-8"?>
<!-- Generator: Adobe Illustrator 18.0.0, SVG Export Plug-In . SVG Version: 6.00 Build 0)  -->
<!DOCTYPE svg PUBLIC "-//W3C//DTD SVG 1.1//EN" "http://www.w3.org/Graphics/SVG/1.1/DTD/svg11.dtd">
<svg version="1.1" id="Layer_1" xmlns="http://www.w3.org/2000/svg" xmlns:xlink="http://www.w3.org/1999/xlink" x="0px" y="0px"
	 viewBox="0 0 248.5 335.1" enable-background="new 0 0 248.5 335.1" xml:space="preserve">
<g>
	<g>
		<path fill="#F9AB8B" d="M98.2,175c0,0,9.2,8.8,16.6,7.8c1.6-0.2,3.1-2,2.3-3.8c-1.1-2.1-3.2-3.3-4.5-4.7c-0.6-0.6,0.6-1,1.4-0.7
			c0.7,0.3,1.5,0.5,1.8,0.2c0.7-0.8-0.7-2.1-1.7-3c-1.9-1.6-8.4-3.5-11.8-3.7L98.2,175z"/>
		
			<rect x="96.6" y="164.4" transform="matrix(-0.8778 -0.479 0.479 -0.8778 104.9194 368.198)" fill="#FCD6D5" width="5.7" height="12.6"/>
		<path fill="#150D09" d="M42.5,90.1c-1,3.4-1.2,7.9-1.2,14.3c0,21.5,7.6,36.2,7.6,36.2l14.8-6.1c0,0,1.6-16.2-2.9-32.3
			c-1.2-4.2-4.1-10.4-6.1-14C51.9,83.1,44.8,82.1,42.5,90.1z"/>
		<path fill="#150D09" d="M63.7,134.5c0,0,4.3,4.1,17.2,14.5c5.9,4.8,10.5,7.1,20.5,14.9L95,176.5c-27.9-17.8-27.6-17.8-39.1-25.2
			c-3.1-2-6-4.7-7.8-12.3L63.7,134.5z"/>
	</g>
	<g>
		<g>
			<path fill="#E78E78" d="M136.1,135.7c-0.5,2.9-2.5,5.6-5.1,5.6l0,0c-2.6,0-3.9-2.5-4.7-5.3c-1.4-5-2.2-13-2.2-17.2
				c0-4.7,0.3-13.3,1.4-18.4c0.6-2.8,1.9-5.5,5.6-5.5c3.3,0,5.3,2.4,5.8,5.3c1.2,5.9,1.1,12.7,1.1,17.6
				C138,123.5,137.2,129.8,136.1,135.7z"/>
			<path fill="#E78E78" d="M135.3,138c0,0-11,20.3-27.1,36.6l-3.6-2.1c0,0,12.5-25.6,22.6-39.2c0,0,3-3.2,6.3-1.3
				C136.4,133.6,135.3,138,135.3,138z"/>
			<path fill="#E78E78" d="M104.6,172.5c0,0-7.3,4.7-9.1,16.4c-0.1,0.9,0,2.9,1.5,2.9c0.8,0,1.5-0.5,2.9-2c0.7-0.8,1.8-2.2,3.4-5
				c-0.3,1.7-0.8,4.4,0.3,4.5c1.7,0.1,2.3-8.9,3.6-12.3c0.3-0.8,0.4-1.4,0.9-2.3L104.6,172.5z"/>
		</g>
		<g>
			<g>
				<path fill="#F8A488" d="M127.2,315.8c0,0,4.8-3.2,8.1-12.6l-1.8-23.4l11.6,0.1l-0.7,18.8L133.8,316
					C133.8,316,125.4,322.1,127.2,315.8z"/>
				<path fill="#E9E9EA" d="M144.3,298.8c0,0-7.6,10.6-10.9,15c-0.5,0.7-1.1,1.3-3,3.1c-1.5,1.4-3.6,0.5-2.9-1.3
					c0,0-3.3,2.7-6.4,2.9c-0.9,0.1-2.4,0.9-2.4,2.1c0,0.9,0.5,2.1,2.8,2.1c1.7,0,8.5,0.1,11.3,0c2,0,4.2-2,5.9-4.6
					c2.3-3.5,5.9-10.2,5.9-10.2v15h1.8c0,0,0-6.2,0-8.5c0-1.6,3.1-5.1,3.1-9.4C149.4,299.6,144.3,298.8,144.3,298.8z"/>
			</g>
			<g>
				<path fill="#F8A488" d="M98.8,315.8c0,0,4.8-3.2,8.1-12.6l-1.8-23.4l11.6,0.1l-0.7,18.8L105.4,316
					C105.4,316,97,322.1,98.8,315.8z"/>
				<path fill="#E9E9EA" d="M116,298.8c0,0-7.6,10.6-10.9,15c-0.5,0.7-1.1,1.3-3,3.1c-1.5,1.4-3.6,0.5-2.9-1.3c0,0-3.3,2.7-6.4,2.9
					c-0.9,0.1-2.4,0.9-2.4,2.1c0,0.9,0.5,2.1,2.8,2.1c1.7,0,8.5,0.1,11.3,0c2,0,4.2-2,5.9-4.6c2.3-3.5,5.9-10.2,5.9-10.2v15h1.8
					c0,0,0-6.2,0-8.5c0-1.6,3.1-5.1,3.1-9.4C121,299.6,116,298.8,116,298.8z"/>
			</g>
		</g>
		<path fill="#FCD6D5" d="M120.1,158.5c0,0-38.9,39.2-45.3,122.1c-0.6,7.7-0.9,15.9-0.9,24.5c0,0,25.1,12.3,63.1,12.1
			c25.1-0.1,73.8-5.5,97.5-21.3c0,0-22-5.2-25.3-23.9c-3.9-21.8-11.8-45.2-22-65.4c-11.3-22.3-29.4-40.7-44.1-48.3L120.1,158.5z"/>
		<path fill="#F8A488" d="M110.5,104.5L110.5,104.5L110.5,104.5L110.5,104.5c0,0,4.6-5.8,8.8-9.1c5.5-4.4,6.2-10.2,6.2-10.8
			c0-1.4-0.1,0-0.1-2.8c0-4.7-2.3-9.9-2.3-9.9l16.1-2.3c0,0-1.6,4-1.1,6.9c0.8,5,0.9,8.9,3.9,14c2.6,4.4,5,12.8,5,15.1l0,0.5h-36.6
			L110.5,104.5L110.5,104.5z"/>
		<path fill="#FCD6D5" d="M142.7,158.4l-22.7,0.1l-3.5-37.6c-9.6-6.8-6.3-16.3-6.3-16.3h37.1c0.7,3.2,1.5,11.1-0.5,18.8
			C140.8,146.4,141.1,156.3,142.7,158.4z"/>
		<path fill="#F8A488" d="M108.5,55.4c-0.3,3.5-1.6,5-3.2,6.2c-0.7,0.5-0.6,1.3-0.1,1.4c1.5,0.4,1.8,2.1,2,2.9
			c0.2,1.1,0.9,1.2,0.8,2.1c0,0.4,0.5,1.1,0.3,1.4c-0.3,0.5-0.6,1.1,0,1.3c0,0,0.9,0.6,0.6,3.1c-0.2,2.2,2.5,3.6,5.6,2.9
			c1.9-0.4,10-2.4,11.9-2.8c0.7-0.2,6.1-1.2,12-3.2c1.6-1,3.1-2.1,4.3-3.3c6.9-4.7,10.9-22.7-5-32.4c-4.1-2.5-15.4-1.7-22.5,1.4
			c-4.5,2-5.8,5-6.6,7.6c-1.2,3.9-0.5,8.1-0.3,10.4L108.5,55.4z"/>
		<g>
			<path fill="#AF5657" d="M109.5,51.7c0,0,0.6-0.3,1.5-0.4c0.9-0.2,2.1-0.3,3.3,0c0.6,0.1,1.2,0.2,1.7,0.5c0.5,0.2,1,0.4,1.3,0.7
				c0.7,0.5,1.2,0.8,1.2,0.8c0.1,0.1,0.1,0.2,0.1,0.3c-0.1,0.1-0.2,0.1-0.3,0.1l0,0c0,0-0.5-0.2-1.2-0.6c-0.3-0.2-0.8-0.3-1.3-0.4
				c-0.5-0.2-1-0.1-1.5-0.2c-1,0-2,0.2-2.8,0.5c-0.7,0.2-1.1,0.5-1.1,0.5c-0.5,0.2-1,0-1.3-0.5C108.8,52.5,109,51.9,109.5,51.7z"/>
		</g>
		<path fill="#FCD6D5" d="M107.8,67.6c0,0-0.1,1.2,0.4,2.3l3.8-2L107.8,67.6z"/>
		<path fill="#F37978" d="M107.2,65.9c0.4-0.1,0.7,0,1.5,0.4c0.6,0.2,2.9,0.8,4.4,0.9c0.3,0,0.4,0.4,0.2,0.5c-3.4,1.3-6.2,0-6.2,0
			s-0.9-0.5-0.7-1.1C106.6,66.1,106.9,66,107.2,65.9z"/>
		<path fill="#F37978" d="M107.4,69.7c0.3-0.3,0.6-0.4,1.5-0.6c0.6-0.1,2.9-1,4.1-1.8c0.3-0.2,0.6,0.1,0.4,0.3c-2,3-5,3.5-5,3.5
			s-1,0.2-1.2-0.5C107,70.2,107.2,69.9,107.4,69.7z"/>
		<path fill="#E87F73" d="M110.6,57.5c0.2-1.4,1.2-2.7,3.7-2.7c2.1,0,3,1.8,3.1,3.3c0,0-1.8-0.9-3.3-1.1
			C112,56.8,110.6,57.5,110.6,57.5z"/>
		
			<radialGradient id="SVGID_1_" cx="-4704.4658" cy="63.5125" r="4.305" gradientTransform="matrix(-1 0 0 1 -4586.1548 0)" gradientUnits="userSpaceOnUse">
			<stop  offset="0" style="stop-color:#F69080"/>
			<stop  offset="1" style="stop-color:#F8A488"/>
		</radialGradient>
		<path fill="url(#SVGID_1_)" d="M113.6,65.4c0.7,1.7,3.4,2.3,6,1.2c2.6-1,4.1-3.3,3.4-5c-0.7-1.7-3.4-2.3-6-1.2
			C114.5,61.4,112.9,63.7,113.6,65.4z"/>
		<path fill="#8C3F42" d="M109.6,44C109.6,44,109.6,43.9,109.6,44c0.3-0.1,0.6-0.3,1-0.5c3.7-2,7.1,3.3,10,7.9
			c4,6.4,8.9,5.9,13.4,5.6c0,0-1.1,3.5-0.4,7.9c0.4,2.5,2.8,4.8,4.3,5.1c0.2,0.4,0.3,0.8,0.6,1.2c0.3,0.6,0.7,1.1,1.2,1.7
			c0.9,1,1.9,1.9,2.9,2.7c-1-0.9-1.9-1.9-2.6-2.9c-0.3-0.5-0.6-1.1-0.9-1.7c-0.1-0.1-0.1-0.3-0.2-0.5c0.3,0.3,0.6,0.6,0.9,0.8
			c0.6,0.5,1.2,0.9,1.9,1.2c-0.6-0.5-1.1-1-1.6-1.5c-0.3-0.4-0.5-0.7-0.7-1.1c0.3-0.1,0.6-0.2,0.9-0.4c0.6,1.3,2.6,4.9,7.2,5.1
			c2.7,0.1,4-1.2,4.7-2.5c0.6-0.2,1.2-0.5,1.7-1c0.7-0.7,1.3-1.4,1.7-2.4c2.1-0.5,4.5-2.1,4.1-6.8c-0.3-3-1.7-4.4-2.8-4.9
			c0.1-0.8-0.1-1.6-0.4-2.4c-0.4-0.8-0.9-1.4-1.5-2.1c-0.4-1.1-0.9-2.2-1.7-2.9c-1.7-1.5-3.5-1.8-4.8-1.7
			c-2.7-10.2-14.2-19.9-32.8-12.4c-1.7,0.7-3,1.4-4,2.2c-0.1,0.1-3.9,2.6-5.5,2.7C104.6,40.4,105.2,45.4,109.6,44z M155.9,56.5
			c0,0-0.1-1.1-0.4-2.6c0.2,0.3,0.5,0.5,0.7,0.8c0.4,0.6,0.6,1.4,0.7,2.1C156.3,56.6,155.9,56.5,155.9,56.5z M152.5,71.6
			c0.5-1.4,0.4-2.6,0.4-2.6s0.4,0.1,1.1,0c-0.1,0.5-0.3,1.1-0.6,1.6C153.1,70.9,152.8,71.3,152.5,71.6z"/>
		<g>
			<path fill="#FCD6D5" d="M146.8,47.8c0-0.2,0.5-0.3,1.2-0.3c0.1,0,0.2,0,0.4,0c-0.1-0.1-0.2-0.2-0.3-0.2c-0.5-0.5-0.8-1-0.6-1.1
				c0.1-0.1,0.6,0.1,1.1,0.6c0.1,0.1,0.2,0.2,0.2,0.3c0-0.1,0-0.2,0-0.4c0-0.7,0.2-1.2,0.3-1.2c0.2,0,0.4,0.5,0.4,1.2
				c0,0.1,0,0.2,0,0.4c0.1-0.1,0.2-0.2,0.2-0.3c0.5-0.5,1-0.8,1.1-0.6c0.1,0.1-0.1,0.6-0.6,1.1c-0.1,0.1-0.2,0.2-0.3,0.2
				c0.1,0,0.2,0,0.4,0c0.7,0,1.2,0.2,1.2,0.3c0,0.2-0.6,0.4-1.2,0.4c-0.1,0-0.2,0-0.4,0c0.1,0.1,0.2,0.2,0.3,0.2
				c0.5,0.5,0.8,1,0.6,1.1c-0.1,0.1-0.6-0.1-1.1-0.6c-0.1-0.1-0.2-0.2-0.2-0.3c0,0.1,0,0.2,0,0.4c0,0.7-0.2,1.2-0.4,1.2
				c-0.2,0-0.3-0.6-0.3-1.2c0-0.1,0-0.2,0-0.4c-0.1,0.1-0.2,0.2-0.2,0.3c-0.5,0.5-1,0.8-1.1,0.6c-0.1-0.1,0.1-0.6,0.6-1.1
				c0.1-0.1,0.2-0.2,0.3-0.2c-0.1,0-0.2,0-0.4,0C147.4,48.2,146.8,48,146.8,47.8z"/>
			<path fill="#FCD6D5" d="M146.2,53.3c-0.1-0.1,0.2-0.6,0.7-0.9c0.1-0.1,0.2-0.1,0.3-0.2c-0.1,0-0.2,0-0.3,0
				c-0.6-0.1-1.1-0.3-1.1-0.5c0-0.2,0.5-0.2,1.2-0.1c0.1,0,0.2,0,0.3,0.1c-0.1-0.1-0.1-0.2-0.2-0.3c-0.4-0.5-0.5-1-0.4-1.1
				c0.1-0.1,0.6,0.2,0.9,0.7c0.1,0.1,0.1,0.2,0.2,0.3c0-0.1,0-0.2,0-0.3c0.1-0.6,0.3-1.1,0.5-1.1c0.2,0,0.2,0.6,0.1,1.2
				c0,0.1-0.1,0.2-0.1,0.3c0.1-0.1,0.2-0.1,0.3-0.2c0.5-0.4,1-0.5,1.1-0.4c0.1,0.1-0.2,0.6-0.7,0.9c-0.1,0.1-0.2,0.1-0.3,0.2
				c0.1,0,0.2,0,0.3,0c0.6,0.1,1.1,0.3,1.1,0.5c0,0.2-0.6,0.2-1.2,0.1c-0.1,0-0.2,0-0.3-0.1c0.1,0.1,0.1,0.2,0.2,0.3
				c0.4,0.5,0.5,1,0.4,1.1c-0.1,0.1-0.6-0.2-0.9-0.7c-0.1-0.1-0.1-0.2-0.2-0.3c0,0.1,0,0.2,0,0.3c-0.1,0.6-0.3,1.1-0.5,1.1
				c-0.2,0-0.2-0.6-0.1-1.2c0-0.1,0-0.2,0.1-0.3c-0.1,0.1-0.2,0.1-0.3,0.2C146.8,53.2,146.3,53.4,146.2,53.3z"/>
			<path fill="#FCD6D5" d="M150.3,51.6c-0.1-0.1,0.2-0.4,0.5-0.7c0.1,0,0.1-0.1,0.2-0.1c-0.1,0-0.2,0-0.2,0
				c-0.5-0.1-0.8-0.3-0.8-0.4c0-0.1,0.4-0.2,0.9-0.1c0.1,0,0.2,0,0.2,0.1c0-0.1-0.1-0.1-0.2-0.2c-0.3-0.4-0.4-0.8-0.3-0.8
				c0.1-0.1,0.4,0.2,0.7,0.6c0.1,0.1,0.1,0.1,0.1,0.2c0-0.1,0-0.2,0-0.2c0.1-0.5,0.3-0.8,0.4-0.8c0.1,0,0.2,0.4,0.1,0.9
				c0,0.1,0,0.2-0.1,0.2c0.1-0.1,0.1-0.1,0.2-0.2c0.4-0.3,0.8-0.4,0.8-0.3c0.1,0.1-0.2,0.4-0.6,0.7c-0.1,0.1-0.1,0.1-0.2,0.1
				c0.1,0,0.2,0,0.2,0c0.5,0.1,0.8,0.3,0.8,0.4c0,0.1-0.4,0.2-0.9,0.1c-0.1,0-0.2,0-0.2-0.1c0.1,0.1,0.1,0.1,0.2,0.2
				c0.3,0.4,0.4,0.8,0.3,0.8c-0.1,0.1-0.4-0.2-0.7-0.6c-0.1-0.1-0.1-0.1-0.1-0.2c0,0.1,0,0.2,0,0.2c-0.1,0.5-0.3,0.8-0.4,0.8
				c-0.1,0-0.2-0.4-0.1-0.9c0-0.1,0-0.2,0.1-0.2c-0.1,0-0.1,0.1-0.2,0.1C150.7,51.6,150.3,51.7,150.3,51.6z"/>
			<path fill="#FCD6D5" d="M144.1,50.6c-0.1-0.1,0.2-0.5,0.7-0.9c0.1-0.1,0.2-0.1,0.3-0.2c-0.1,0-0.2,0-0.3,0c-0.6-0.1-1-0.3-1-0.5
				c0-0.2,0.5-0.2,1.1-0.1c0.1,0,0.2,0,0.3,0.1c-0.1-0.1-0.1-0.2-0.2-0.2c-0.3-0.5-0.5-0.9-0.4-1c0.1-0.1,0.5,0.2,0.9,0.7
				c0.1,0.1,0.1,0.2,0.2,0.3c0-0.1,0-0.2,0-0.3c0.1-0.6,0.3-1,0.5-1c0.2,0,0.2,0.5,0.1,1.1c0,0.1,0,0.2-0.1,0.3
				c0.1-0.1,0.2-0.1,0.2-0.2c0.5-0.3,0.9-0.5,1-0.4c0.1,0.1-0.2,0.5-0.7,0.9c-0.1,0.1-0.2,0.1-0.3,0.2c0.1,0,0.2,0,0.3,0
				c0.6,0.1,1,0.3,1,0.5c0,0.2-0.5,0.2-1.1,0.1c-0.1,0-0.2,0-0.3-0.1c0.1,0.1,0.1,0.2,0.2,0.2c0.3,0.5,0.5,0.9,0.4,1
				c-0.1,0.1-0.5-0.2-0.9-0.7c-0.1-0.1-0.1-0.2-0.2-0.3c0,0.1,0,0.2,0,0.3c-0.1,0.6-0.3,1-0.5,1c-0.2,0-0.2-0.5-0.1-1.1
				c0-0.1,0-0.2,0.1-0.3c-0.1,0.1-0.2,0.1-0.2,0.2C144.7,50.6,144.2,50.7,144.1,50.6z"/>
			<path fill="#FCD6D5" d="M145,47c-0.1-0.1,0.2-0.4,0.5-0.6c0.1,0,0.1-0.1,0.2-0.1c-0.1,0-0.2,0-0.2,0c-0.4-0.1-0.8-0.2-0.7-0.4
				c0-0.1,0.4-0.2,0.8-0.1c0.1,0,0.2,0,0.2,0c-0.1-0.1-0.1-0.1-0.1-0.2c-0.2-0.3-0.4-0.7-0.3-0.8c0.1-0.1,0.4,0.2,0.6,0.5
				c0,0.1,0.1,0.1,0.1,0.2c0-0.1,0-0.1,0-0.2c0.1-0.4,0.2-0.8,0.4-0.7c0.1,0,0.2,0.4,0.1,0.8c0,0.1,0,0.2,0,0.2
				c0.1,0,0.1-0.1,0.2-0.1c0.4-0.3,0.7-0.4,0.8-0.3c0.1,0.1-0.2,0.4-0.5,0.6c-0.1,0-0.1,0.1-0.2,0.1c0.1,0,0.1,0,0.2,0
				c0.4,0.1,0.7,0.2,0.7,0.3c0,0.1-0.4,0.2-0.8,0.1c-0.1,0-0.1,0-0.2,0c0,0.1,0.1,0.1,0.1,0.2c0.2,0.4,0.4,0.7,0.3,0.8
				c-0.1,0.1-0.4-0.2-0.6-0.5c-0.1-0.1-0.1-0.1-0.1-0.2c0,0.1,0,0.2,0,0.2c-0.1,0.4-0.2,0.7-0.3,0.7c-0.1,0-0.2-0.4-0.1-0.8
				c0-0.1,0-0.2,0.1-0.2c-0.1,0-0.1,0.1-0.2,0.1C145.4,47,145.1,47.1,145,47z"/>
			<path fill="#FCD6D5" d="M150.6,48.5c-0.1-0.1,0.2-0.4,0.6-0.7c0.1-0.1,0.1-0.1,0.2-0.1c-0.1,0-0.2,0-0.3,0
				c-0.5-0.1-0.8-0.3-0.8-0.4c0-0.1,0.4-0.2,0.9-0.1c0.1,0,0.2,0,0.3,0.1c-0.1-0.1-0.1-0.1-0.2-0.2c-0.3-0.4-0.4-0.8-0.3-0.8
				c0.1-0.1,0.4,0.2,0.7,0.6c0,0.1,0.1,0.1,0.1,0.2c0-0.1,0-0.2,0-0.2c0.1-0.5,0.3-0.8,0.4-0.8c0.1,0,0.2,0.4,0.1,0.9
				c0,0.1,0,0.2-0.1,0.2c0.1-0.1,0.1-0.1,0.2-0.2c0.4-0.3,0.8-0.4,0.8-0.3c0.1,0.1-0.2,0.4-0.6,0.7c-0.1,0.1-0.1,0.1-0.2,0.1
				c0.1,0,0.2,0,0.2,0c0.5,0.1,0.8,0.3,0.8,0.4c0,0.1-0.4,0.2-0.9,0.1c-0.1,0-0.2,0-0.2-0.1c0.1,0.1,0.1,0.1,0.1,0.2
				c0.3,0.4,0.4,0.8,0.3,0.8c-0.1,0.1-0.4-0.2-0.7-0.6c-0.1-0.1-0.1-0.1-0.1-0.2c0,0.1,0,0.2,0,0.2c-0.1,0.5-0.3,0.8-0.4,0.8
				c-0.1,0-0.2-0.4-0.1-0.9c0-0.1,0-0.2,0.1-0.2c-0.1,0-0.1,0.1-0.2,0.2C151,48.4,150.6,48.6,150.6,48.5z"/>
		</g>
		<path fill="#F8A488" d="M130.6,57.1c-1.2,1.7-1.3,3.7-0.1,4.6c1.2,0.9,3.1,0.3,4.4-1.4c1.2-1.7,1.3-3.7,0.1-4.6
			C133.7,54.8,131.8,55.4,130.6,57.1z"/>
		<path fill="#FCD6D5" d="M130.8,61.4c0,0.7,0.5,1.2,1.2,1.2c0.7,0,1.2-0.5,1.2-1.2c0-0.7-0.5-1.2-1.2-1.2
			C131.3,60.3,130.8,60.8,130.8,61.4z"/>
		<g>
			<path fill="#F8A488" d="M139.6,135.7c-0.5,2.9-2.5,5.6-5.1,5.6l0,0c-2.6,0-3.9-2.5-4.7-5.3c-1.4-5-2.2-13-2.2-17.2
				c0-4.7,0.3-13.3,1.4-18.4c0.6-2.8,1.9-5.5,5.6-5.5c3.3,0,5.3,2.4,5.8,5.3c1.2,5.9,1.1,12.7,1.1,17.6
				C141.5,123.5,140.7,129.8,139.6,135.7z"/>
			<path fill="#F8A488" d="M138.9,138c0,0-11,20.3-27.1,36.6l-3.6-2.1c0,0,12.5-25.6,22.6-39.2c0,0,3-3.2,6.3-1.3
				C139.9,133.6,138.9,138,138.9,138z"/>
			<path fill="#F8A488" d="M112.4,173.8c0,0-1.1,8.7-10.8,15.3c-0.8,0.5-2.7,1.3-3.2-0.2c-0.3-0.7-0.2-1.6,0.6-3.5
				c0.4-0.9,1.2-2.6,3.1-5.2c-1.4,1-3.6,2.6-4.2,1.6c-0.8-1.5,7-6,9.5-8.5c0.6-0.6,1.1-1,1.6-1.8L112.4,173.8z"/>
		</g>
		<g>
			<path fill="#FCD6D5" d="M120.1,95.5c0,0.6-0.4,1-1,1c-0.6,0-1-0.4-1-1c0-0.6,0.5-1,1-1C119.7,94.5,120.1,94.9,120.1,95.5z"/>
			<path fill="#FCD6D5" d="M122.2,95.2c0,0.6-0.4,1-1,1c-0.6,0-1-0.5-1-1c0-0.6,0.5-1,1-1C121.7,94.2,122.2,94.7,122.2,95.2z"/>
			<path fill="#FCD6D5" d="M124.2,94.8c0,0.6-0.4,1-1,1c-0.6,0-1-0.4-1-1c0-0.6,0.5-1,1-1C123.7,93.7,124.2,94.2,124.2,94.8z"/>
			<path fill="#FCD6D5" d="M126.1,94.2c0,0.6-0.5,1-1,1c-0.6,0-1-0.5-1-1c0-0.6,0.4-1,1-1C125.6,93.2,126.1,93.6,126.1,94.2z"/>
			<path fill="#FCD6D5" d="M128,93.6c0,0.6-0.5,1-1,1c-0.6,0-1-0.4-1-1c0-0.6,0.4-1,1-1C127.6,92.6,128,93,128,93.6z"/>
			<path fill="#FCD6D5" d="M129.9,92.8c0,0.6-0.4,1-1,1c-0.6,0-1-0.5-1-1c0-0.6,0.5-1,1-1C129.5,91.8,129.9,92.3,129.9,92.8z"/>
			<path fill="#FCD6D5" d="M131.6,91.8c0,0.6-0.5,1-1,1c-0.6,0-1-0.5-1-1c0-0.6,0.5-1,1-1C131.1,90.8,131.6,91.3,131.6,91.8z"/>
			<path fill="#FCD6D5" d="M133.2,90.9c0,0.6-0.5,1-1,1c-0.6,0-1-0.5-1-1c0-0.6,0.5-1,1-1C132.8,89.9,133.2,90.3,133.2,90.9z"/>
			<path fill="#FCD6D5" d="M134.9,89.8c0,0.6-0.5,1-1,1c-0.6,0-1-0.5-1-1c0-0.6,0.5-1,1-1C134.4,88.8,134.9,89.2,134.9,89.8z"/>
			<circle fill="#FCD6D5" cx="135.3" cy="88.5" r="1"/>
			<circle fill="#FCD6D5" cx="136.7" cy="87.3" r="1"/>
			<path fill="#FCD6D5" d="M139.3,86.2c0,0.6-0.5,1-1,1c-0.6,0-1-0.5-1-1c0-0.6,0.5-1,1-1C138.8,85.1,139.3,85.6,139.3,86.2z"/>
			<path fill="#FCD6D5" d="M140.7,84.8c0,0.6-0.4,1-1,1c-0.6,0-1-0.5-1-1c0-0.6,0.5-1,1-1C140.2,83.8,140.7,84.2,140.7,84.8z"/>
		</g>
		<path fill="#8C3F42" d="M118.7,57.4c-0.9,0.3-1.7,0.1-2.5-0.3c-0.6-0.4-1.4-0.7-2.1-0.8c-1.4-0.1-2.8,0.4-3.7,1.5
			c0.3-0.1,0.6-0.1,0.9-0.2c-0.2,0.2-0.3,0.4-0.3,0.7c0,0.7,0.6,1.2,1.3,1.2c0.7,0,1.3-0.5,1.3-1.2c0-0.4-0.2-0.7-0.5-0.9
			c0.3,0,0.6-0.1,0.9,0c1.2,0,2.2,0.6,3.4,1.2c-0.1-0.2-0.3-0.4-0.5-0.6C117.6,57.8,118.2,57.7,118.7,57.4z"/>
	</g>
	<g>
		<g>
			<path fill="#F9AE97" d="M75,53.5c-0.8-0.8-1.3-1.6-1.9-2.6c-0.4-0.8-0.9-1.7-1.5-2.8c0,0-0.1-1,0-1.1c0.2-2.2,1-6.3-0.2-10
				c1-4.4-2.3-8.5-3.3-9.3c-11.8-9.4-26.9-3.1-28.1-2.6c0,0-10.7,3.4-10.7,13.8c0,9.3,2.8,16.9,7.1,20.1c0.3,2.9-0.1,6.1-0.1,6.1
				C36.1,68.4,33.7,83,33.7,83H56c-1.1-2.7,2.3-12.8,4.1-13.8c0.7-0.4,5-0.2,5.4-0.2c3,0.7,5.7-0.7,5.5-2.9c-0.1-0.8-0.1-1.4,0-1.8
				c0.3-0.7,0.8-0.8,1-1.4c0.1-0.2,0-0.4-0.3-0.5c0.3-0.9,0.5-2.1,0.6-3.1c0.6-0.1,0.6-0.6,0.5-0.8c-0.1-0.3-0.2-1-0.2-1.3
				c0-0.9,0-2.2,1.3-2.2C76.3,55.1,75.5,54,75,53.5z"/>
			<path fill="#6E1F2C" d="M39.5,24.6c0.2-1.4-1.4-1.5-1.4-1.5c1.3-0.4,3.1,0.9,3.1,0.9c-0.3-1.4,1.7-3.2,1.7-3.2
				c-1.2,1.3,0,2.6,0,2.6c8.1-4.5,19.3-3.1,25.8,3.8c0.2,0.2,2,2.9,3.2,5.6c0.2,0.4,0.3,0.9,0.5,1.3c1-0.4,2.1-0.9,2.7-1.9
				c0,0-0.2,6.5-4.8,6.6c-2.7,0.2-6-1.8-9.1-3.1c-5.7-2.4-9,0.1-9.9,4.8c-0.6,3.3-0.7,4.2-1.4,8.5c-0.3,1.6-0.4,2.1-0.7,4.4
				c-0.1,0.7-1,0.5-1.8,0.5c-1,0-0.9-1.2-0.9-1.5c-0.3-3-2.1-4.6-3.5-5.2c-1.6-0.7-2.2-0.1-2.8,0.6c-1.4,1.7,0.2,3.7,2.1,6.7
				c1.4,2.2-3.3,5.2-5.8,5.2c-1.8,0-7.9-11.5-7.9-20.8C28.4,28.1,39.5,24.6,39.5,24.6z"/>
			<path fill="#F9AE97" d="M45.4,49.6c1.2,2.2,0.9,4.5-0.5,5.2c-1.5,0.6-3.6-0.7-4.8-2.9c-1.2-2.2-0.9-4.5,0.5-5.2
				C42.1,46.1,44.2,47.4,45.4,49.6z"/>
			<g>
				<path fill="#8C3F42" d="M69,44.7c0,0-0.6-0.2-1.3-0.2c-0.4,0-0.8-0.2-1.3-0.1c-0.5,0-1,0.1-1.5,0.2c-1.1,0-2,0.6-2.8,0.8
					c-0.8,0.3-1.3,0.5-1.3,0.5l-0.1,0c-0.1,0-0.2,0-0.3-0.1c0-0.1,0-0.2,0.1-0.3c0,0,0.5-0.3,1.2-0.7c0.8-0.3,1.7-1.1,2.8-1.3
					c0.6-0.1,1.1-0.3,1.7-0.4c0.5-0.2,1.1-0.1,1.5-0.1c1,0,1.5,0.1,1.5,0.1l0.1,0c0.5,0.1,0.7,0.6,0.6,1C70,44.6,69.5,44.9,69,44.7
					C69,44.8,69,44.8,69,44.7z"/>
			</g>
			<path fill="#FCD6D5" d="M65.8,58.4c0,0-0.5-0.2-0.4,0.3c0.1,0.5,3.9,3.6,6.4,3.8l0.1-0.2c0.3-0.9,0.4-1.8,0.5-2.8
				C72.1,59.5,68.3,60,65.8,58.4z"/>
			<path fill="#8C3F42" d="M68.4,48c0.3,0,0.6-0.1,0.9-0.1c-0.9-0.7-2.2-0.8-3.3-0.4c-0.5,0.3-1,0.6-1.4,1.1c-0.4,0.5-0.6,1-0.7,1.5
				c0.9-0.7,1.6-1.4,2.5-1.7c0,0,0.1,0,0.1,0c-0.1,0.1-0.1,0.3-0.1,0.5c0,0.7,0.6,1.2,1.3,1.2c0.7,0,1.3-0.5,1.3-1.2
				C68.9,48.5,68.7,48.2,68.4,48z"/>
		</g>
		<g>
			<path fill="#070100" d="M18.7,309l17.3-0.1c0.6,1.2,3,5.7,7.1,5.7l7.5,0c5.6,0,6.3,4.7,6.5,8.1l-24,0.1l-1.6-1.4l-1.1,1.4
				l-11.6,0L18.7,309z"/>
			<path fill="#1C1516" d="M57.4,172.1l-8.2,65.3l-5.3,76.4l-26.2-2.3l7.8-75l0.3-27.3c-0.3-6.1,0.5-16.2,0.5-16.2
				c-5.3-7.5-2.9-21.6-2.3-24.7L57.4,172.1z"/>
			<path fill="#1C1516" d="M37.6,309h17.3c0.6,1.2,2.9,5.7,7.1,5.7h7.5c5.6,0,6.3,4.7,6.4,8.2h-24l-1.6-1.4l-1.1,1.4H37.6V309z"/>
			<path fill="#24201E" d="M60.5,172.9l-2.3,65.8l1.4,75.8H34.3l0.3-74.4L31,210.6c-0.9-6-2.6-12.8-2.6-12.8c-6-6.9-5-21.8-4.6-25
				H60.5z"/>
			<g>
				<polygon fill="#FCD6D5" points="35.7,63.4 58.6,74.5 55.9,79.8 35.7,69.2 				"/>
				<path fill="#221B18" d="M26.7,133.9c0-9.4,0-34.7,0-42.2c0-11.5,8.9-22.4,8.9-22.4L56,79.8c0,0,7,10.1,7,19.6
					c0,20.8,0,81.5,0,81.5c-3.9,0.4-36,3.6-44.1-2C18.9,178.8,26.7,147.2,26.7,133.9z"/>
				<path fill="#2E2726" d="M33.5,72.2l2-6.5l20.5,14c8.6,11.9,7.1,24.5,7.1,24.5v19.8L52.8,91.3l3.3-3.2l-4.6,0.7L33.5,72.2z"/>
			</g>
		</g>
		<g>
			<path fill="#F9AE97" d="M87.9,176.8c0,0,9.2,8.8,16.6,7.8c1.6-0.2,3.1-2,2.2-3.8c-1.1-2.1-3.2-3.3-4.5-4.7
				c-0.6-0.6,0.6-1,1.4-0.7c0.7,0.3,1.5,0.5,1.8,0.2c0.7-0.7-0.7-2.1-1.7-3c-1.9-1.6-8.4-3.6-11.8-3.7L87.9,176.8z"/>
			<path fill="#2E2726" d="M32.9,91.8c-1,3.4-1.2,7.9-1.2,14.3c0,21.5,7.6,36.2,7.6,36.2l14.8-6.1c0,0,1.6-16.2-2.9-32.3
				c-1.2-4.2-4-10.4-6.1-14C42.3,84.8,35.2,83.8,32.9,91.8z"/>
			<polygon fill="#FCD6D5" points="83.6,176.4 88.6,179.1 94.6,168.1 89.6,165.3 			"/>
			<path fill="#2E2726" d="M54.1,136.2c0,0,4.3,4.1,17.2,14.5c5.9,4.7,10.5,7.1,20.5,14.9l-6.4,12.6c-27.9-17.8-27.6-17.8-39.1-25.2
				c-3.1-2-6-4.7-7.8-12.3L54.1,136.2z"/>
		</g>
	</g>
</g>
</svg>
