<svg width="55" height="55" viewBox="0 0 55 55" fill="none" xmlns="http://www.w3.org/2000/svg">
<g clip-path="url(#clip0_33_34)">
<path d="M38.9583 4.5835H16.0416C9.71332 4.5835 4.58325 9.71357 4.58325 16.0418V38.9585C4.58325 45.2868 9.71332 50.4168 16.0416 50.4168H38.9583C45.2865 50.4168 50.4166 45.2868 50.4166 38.9585V16.0418C50.4166 9.71357 45.2865 4.5835 38.9583 4.5835Z" stroke="white" stroke-width="2" stroke-linecap="round" stroke-linejoin="round"/>
<path d="M36.6668 26.0565C36.9496 27.9637 36.6239 29.9115 35.7358 31.6229C34.8478 33.3344 33.4428 34.7222 31.7205 35.589C29.9983 36.4559 28.0466 36.7576 26.143 36.4513C24.2394 36.145 22.4808 35.2462 21.1175 33.8829C19.7541 32.5195 18.8554 30.761 18.549 28.8574C18.2427 26.9538 18.5445 25.002 19.4113 23.2798C20.2782 21.5576 21.666 20.1525 23.3774 19.2645C25.0888 18.3765 27.0367 18.0507 28.9439 18.3335C30.8893 18.622 32.6904 19.5286 34.0811 20.9192C35.4718 22.3099 36.3783 24.111 36.6668 26.0565Z" stroke="white" stroke-width="2" stroke-linecap="round" stroke-linejoin="round"/>
</g>
<defs>
<clipPath id="clip0_33_34">
<rect width="55" height="55" fill="white"/>
</clipPath>
</defs>
</svg>
