<svg width="55" height="59" viewBox="0 0 55 59" fill="none" xmlns="http://www.w3.org/2000/svg">
<path d="M51.6543 15.6518C51.3821 14.4948 50.8277 13.4346 50.0471 12.5785C49.2665 11.7224 48.2873 11.1006 47.2085 10.7759C43.2668 9.75195 27.5002 9.75195 27.5002 9.75195C27.5002 9.75195 11.7335 9.75195 7.79184 10.8734C6.71303 11.1981 5.73387 11.8199 4.95326 12.676C4.17264 13.5322 3.61823 14.5923 3.346 15.7493C2.62462 20.0049 2.27175 24.3219 2.29184 28.646C2.26612 33.0027 2.61901 37.3527 3.346 41.6403C3.64612 42.7613 4.21296 43.7811 4.99175 44.6011C5.77054 45.4211 6.73497 46.0135 7.79184 46.3211C11.7335 47.4426 27.5002 47.4426 27.5002 47.4426C27.5002 47.4426 43.2668 47.4426 47.2085 46.3211C48.2873 45.9964 49.2665 45.3746 50.0471 44.5185C50.8277 43.6624 51.3821 42.6022 51.6543 41.4452C52.3702 37.2217 52.723 32.9376 52.7085 28.646C52.7342 24.2893 52.3813 19.9394 51.6543 15.6518V15.6518Z" stroke="white" stroke-width="2" stroke-linecap="round" stroke-linejoin="round"/>
<path d="M22.3438 36.6185L35.5208 28.6464L22.3438 20.6743V36.6185Z" stroke="white" stroke-width="2" stroke-linecap="round" stroke-linejoin="round"/>
</svg>
