<svg width="55" height="55" viewBox="0 0 55 55" fill="none" xmlns="http://www.w3.org/2000/svg">
<path d="M51.0191 41.7758C51.0448 41.6964 51.0624 41.6125 51.0624 41.5243V12.4075C51.0624 12.3187 51.0448 12.2343 51.0185 12.1543C51.0147 12.1433 51.0125 12.1324 51.0081 12.1214C50.9731 12.0277 50.9215 11.9433 50.8569 11.8693C50.8525 11.8644 50.8519 11.8583 50.8475 11.8534C50.8448 11.8507 50.8415 11.8496 50.8388 11.8468C50.7697 11.7734 50.6881 11.7142 50.5965 11.6698C50.5894 11.6665 50.5839 11.6621 50.5768 11.6588C50.4902 11.6199 50.396 11.598 50.2967 11.5914C50.2869 11.5909 50.2776 11.5887 50.2677 11.5887C50.2584 11.5881 50.2502 11.5859 50.2408 11.5859H4.63953C4.63022 11.5859 4.62145 11.5881 4.61213 11.5887C4.60336 11.5892 4.59459 11.5909 4.58582 11.5914C4.48553 11.598 4.38962 11.6205 4.30193 11.6599C4.29645 11.6621 4.29206 11.666 4.28658 11.6681C4.19341 11.7125 4.11065 11.7728 4.04105 11.8474C4.03831 11.8501 4.03502 11.8507 4.03228 11.8534C4.0279 11.8578 4.02735 11.8638 4.02296 11.8687C3.95829 11.9427 3.90623 12.0277 3.87115 12.1214C3.86677 12.1324 3.86458 12.1433 3.86074 12.1548C3.83443 12.2348 3.81689 12.3192 3.81689 12.408V41.5254C3.81689 41.6152 3.83498 41.7007 3.86184 41.7819C3.86567 41.7928 3.86786 41.8032 3.8717 41.8142C3.90732 41.9085 3.95994 41.9934 4.02516 42.0674C4.02899 42.0718 4.03009 42.0773 4.03393 42.0816C4.03721 42.0855 4.0416 42.0877 4.04544 42.0915C4.07229 42.1195 4.10189 42.1441 4.13258 42.1682C4.14628 42.1787 4.15834 42.1913 4.17259 42.2011C4.20876 42.2263 4.24767 42.2466 4.28768 42.2652C4.29754 42.2696 4.30631 42.2768 4.31618 42.2806C4.41538 42.3228 4.52444 42.3469 4.63898 42.3469H50.2397C50.3543 42.3469 50.4634 42.3233 50.5626 42.2806C50.5779 42.274 50.5922 42.2641 50.6069 42.2565C50.6409 42.2395 50.6749 42.2219 50.7061 42.2006C50.7226 42.1891 50.7374 42.1743 50.7533 42.1617C50.7812 42.1392 50.8086 42.1167 50.8328 42.091C50.8371 42.0866 50.8421 42.0833 50.8465 42.0789C50.8508 42.074 50.8519 42.0674 50.8563 42.0625C50.9204 41.989 50.972 41.9046 51.007 41.8115C51.0125 41.7994 51.0153 41.7879 51.0191 41.7758ZM5.46162 14.272L19.2985 26.9108L5.46162 39.6504V14.272ZM33.8215 26.2915C33.7645 26.3288 33.7042 26.36 33.6566 26.4126C33.6385 26.4323 33.6324 26.4581 33.6165 26.4789L27.4399 32.1207L6.75833 13.2296H48.1215L33.8215 26.2915ZM20.5174 28.0239L26.8853 33.8405C27.0426 33.9841 27.241 34.0559 27.4399 34.0559C27.6389 34.0559 27.8373 33.9841 27.994 33.8405L34.283 28.0962L48.1177 40.7027H6.74627L20.5174 28.0239ZM35.5024 26.9826L49.4182 14.272V39.6636L35.5024 26.9826Z" fill="white"/>
</svg>
