<svg width="117" height="195" viewBox="0 0 117 195" fill="none" xmlns="http://www.w3.org/2000/svg">
<path d="M97.3535 34.7538H116.379V0.0213997H81.8067C78.924 -0.0998003 43.7675 -0.771803 34.6543 33.9766C34.5215 34.3418 31.6111 42.6034 31.6111 61.9082L0 62.0018V98.4314L31.6523 98.3378V194.42H80V98.4198H112V61.8962H80V50.4042C80 43.2634 83.0095 34.7538 97.3535 34.7538ZM104 69.8962V90.4198H72V186.42H39.6523V90.3142L8 90.4082V69.9782L39.7343 69.8846L39.6523 65.8162C39.2383 45.369 42.1523 36.7674 42.2831 36.3574C50.1463 6.4278 80.1739 7.9354 81.4627 8.0134L108.379 8.0214V26.7538H97.3535C78.66 26.7538 72 38.9706 72 50.4042V69.8962H104V69.8962Z" fill="white"/>
</svg>
