<svg width="55" height="55" viewBox="0 0 55 55" fill="none" xmlns="http://www.w3.org/2000/svg">
<g clip-path="url(#clip0_33_32)">
<path d="M46.7281 54.9997H46.2001C34.8456 53.7596 24.181 48.9359 15.7521 41.2277L13.8381 39.3137C6.09314 30.8758 1.24501 20.1853 5.94631e-05 8.7997C-0.109677 7.79228 0.118096 6.77694 0.647648 5.91293C1.1772 5.04893 1.97857 4.38514 2.92606 4.0257L12.8041 0.197699C13.4483 -0.0512985 14.1611 -0.0568439 14.8091 0.182102C15.4571 0.421049 15.9957 0.888087 16.3241 1.4957L23.2541 14.2337C23.5442 14.7727 23.6538 15.3906 23.5667 15.9965C23.4796 16.6023 23.2003 17.1643 22.7701 17.5997L16.4341 23.8257C16.3335 23.9417 16.2781 24.0901 16.2781 24.2437C16.2781 24.3973 16.3335 24.5457 16.4341 24.6617C18.3444 27.4629 20.4702 30.1109 22.7921 32.5817C25.1732 34.8189 27.7338 36.8571 30.4481 38.6757C30.5625 38.7705 30.7065 38.8224 30.8551 38.8224C31.0037 38.8224 31.1476 38.7705 31.2621 38.6757L37.4001 32.2297C37.8345 31.7909 38.3993 31.5046 39.0099 31.4134C39.6206 31.3222 40.2444 31.431 40.7881 31.7237L53.5261 38.6537C54.1303 38.9855 54.5944 39.5244 54.8329 40.1711C55.0714 40.8179 55.0683 41.5291 54.8241 42.1737L50.9961 52.0517C50.6666 52.9173 50.0822 53.6625 49.3201 54.1889C48.5581 54.7152 47.6542 54.998 46.7281 54.9997ZM17.2701 39.5997C25.3463 46.9849 35.5634 51.608 46.4421 52.7997C46.9662 52.8585 47.4949 52.7412 47.945 52.4663C48.3951 52.1915 48.7409 51.7747 48.9281 51.2817L52.8001 41.4037C52.8567 41.2595 52.8589 41.0996 52.8063 40.9538C52.7537 40.8081 52.6498 40.6865 52.5141 40.6117L39.7101 33.6597C39.5876 33.5906 39.4456 33.5639 39.3064 33.5838C39.1671 33.6037 39.0383 33.6691 38.9401 33.7697L32.7141 40.1057C32.2532 40.5832 31.6384 40.8826 30.9783 40.951C30.3182 41.0194 29.6551 40.8525 29.1061 40.4797C26.2811 38.583 23.6174 36.4565 21.1421 34.1217C18.7297 31.5486 16.5229 28.7901 14.5421 25.8717C14.1649 25.3217 13.9934 24.6565 14.0578 23.9927C14.1222 23.3289 14.4182 22.709 14.8941 22.2417L21.2301 16.0377C21.3307 15.9394 21.3961 15.8107 21.416 15.6714C21.4359 15.5321 21.4092 15.3902 21.3401 15.2677L14.3881 2.5297C14.3207 2.38608 14.2023 2.2727 14.0558 2.21168C13.9094 2.15067 13.7455 2.1464 13.5961 2.1997L3.71806 6.0717C3.22503 6.25886 2.80827 6.60472 2.53343 7.05481C2.2586 7.50489 2.14132 8.03362 2.20006 8.5577C3.3887 19.4437 8.01192 29.6688 15.4001 37.7517L17.2701 39.5997Z" fill="white"/>
</g>
<defs>
<clipPath id="clip0_33_32">
<rect width="55" height="55" fill="white"/>
</clipPath>
</defs>
</svg>
