<svg width="120" height="121" viewBox="0 0 120 121" fill="none" xmlns="http://www.w3.org/2000/svg">
<g clip-path="url(#clip0_16_250)">
<path d="M68.8589 1.61771C68.6426 4.11928 68.1724 5.8685 67.1943 7.85282C66.2069 9.85596 64.7962 11.577 62.9812 12.9876C60.7429 14.7274 58.6364 15.7243 56.1536 16.2227C53.4357 16.7682 51.3291 16.9093 44.0595 17.0221C35.2194 17.1632 32.7649 17.3701 29.8589 18.2165C22.2696 20.4171 16.1285 24.7337 14.4075 29.0597C13.2602 31.9657 13.4294 36.0096 14.8495 39.2259C15.6113 40.9657 16.8526 42.4704 18.4702 43.6271C18.884 43.9281 19.4012 44.3324 19.6081 44.5299C21.4984 46.298 24.3291 47.6428 27.8746 48.4328C29.4357 48.7807 32.6332 49.2603 32.6332 49.1475C32.6332 49.1193 32.4451 48.7995 32.21 48.4328C31.3542 47.0973 30.6865 45.5456 30.4138 44.2478C30.2539 43.4861 30.2351 41.8497 30.3762 41.0973C30.6301 39.7337 31.3354 38.0033 32.1254 36.7807C33.6301 34.4767 35.9624 33.0472 38.8965 32.6146C39.3856 32.5487 41.7273 32.5017 45.7523 32.4923C53.069 32.4829 52.7022 32.5205 57.6489 31.1663C65.0313 29.1444 68.163 27.2165 69.9969 23.5487C71.7273 20.0879 72.5266 15.2259 72.2351 9.89357C72.0752 6.9594 71.5674 2.52994 71.3699 2.30423C71.3229 2.25721 71.2853 2.50172 71.2853 2.8779C71.2853 4.56129 70.8056 6.89357 70.0815 8.77445L69.9028 9.22586L69.79 7.36379C69.7335 6.33871 69.6395 5.11615 69.5831 4.65533C69.4796 3.69608 69.0188 0.338715 68.9906 0.310501C68.9812 0.301098 68.9248 0.893574 68.8589 1.61771Z" fill="white"/>
<path d="M96.0659 42.8934C88.0533 43.4389 81.2163 49.1662 79.232 56.9718C78.8276 58.58 78.696 59.7273 78.696 61.5988C78.6866 62.9342 78.7336 63.6113 78.8841 64.5142C79.7305 69.5549 82.2508 73.6646 86.3794 76.7587C86.7461 77.0314 87.348 77.511 87.7336 77.8402C90.1129 79.8621 93.0659 81.2822 96.1975 81.9029C104.962 83.6615 113.906 78.79 117.216 70.4577C120.348 62.6051 117.875 53.6991 111.16 48.5737C110.614 48.1599 109.853 47.558 109.467 47.2289C106.533 44.7273 102.602 43.1568 98.6145 42.884C97.8809 42.837 97.2508 42.7994 97.1944 42.8088C97.1474 42.8088 96.6395 42.8464 96.0659 42.8934Z" fill="white"/>
<path d="M33.1035 56.906C25.1945 57.5079 17.8214 60.5079 11.5675 65.6709C10.533 66.5267 7.94682 69.1129 7.044 70.2038C4.09102 73.7399 1.75874 77.8026 0.338675 81.9029L0.00952148 82.8527H1.55184C2.40764 82.8527 3.10356 82.8621 3.10356 82.8715C3.10356 82.8903 2.95309 83.2947 2.77441 83.7837C2.59573 84.2634 2.44526 84.7054 2.44526 84.743C2.44526 84.79 18.2164 84.8276 38.276 84.8276C57.9876 84.8276 74.1067 84.79 74.1067 84.7524C74.1067 84.5737 73.2227 82.2696 72.696 81.0847C70.185 75.395 66.3292 70.5236 61.0346 66.3668C60.5926 66.0283 59.812 65.3982 59.2948 64.9844C58.1192 64.0345 55.9656 62.5769 54.5455 61.7681C48.0377 58.0627 40.4578 56.3417 33.1035 56.906Z" fill="white"/>
<path d="M95.2665 84.1693C92.7555 84.2916 90.6395 84.6584 88.674 85.2979C85.3918 86.37 83.3229 87.9687 81.3291 90.9875C79.1944 94.2132 77.7461 98.5298 76.9185 104.107C76.815 104.803 76.6834 105.404 76.6176 105.442C76.2602 105.687 74.6991 106.373 74.0407 106.589C71.5674 107.361 68.6708 107.285 65.6897 106.364C64.1944 105.903 63.4608 105.611 62.1066 104.944C60.8652 104.342 60.7241 104.248 60.1034 103.58C58.8056 102.188 57.6207 100.129 56.953 98.0878L56.6332 97.1004L65.3699 97.0722L74.1066 97.0534V93.2916V89.5298H72.931H71.7555V88.5424V87.5549H35.8777H0V91.1756V94.7869L1.20376 94.8151L2.39812 94.8433L2.40752 95.7838L2.42633 96.7242L20.5204 96.7524L38.6144 96.7712L38.7837 97.975C39.8558 105.451 42.6677 112.382 46.627 117.329C47.4451 118.345 47.4545 118.354 47.8965 118.382C48.3292 118.411 48.3386 118.42 49.1379 119.398L49.9467 120.376H84.8182H119.69L119.746 120.019C119.784 119.831 119.859 118.721 119.915 117.555C120.235 111.348 119.398 101.84 118.157 97.7399C117.592 95.8872 116.219 92.9624 115.176 91.4107C114.536 90.4703 113.266 89.1631 112.439 88.6176C112.072 88.3731 111.498 87.9123 111.16 87.602C109.42 85.975 107.455 85.1474 103.966 84.5925C101.661 84.2258 97.9279 84.0471 95.2665 84.1693Z" fill="white"/>
</g>
<defs>
<clipPath id="clip0_16_250">
<rect width="120" height="120.376" fill="white"/>
</clipPath>
</defs>
</svg>
