<svg width="120" height="120" viewBox="0 0 120 120" fill="none" xmlns="http://www.w3.org/2000/svg">
<path d="M35.8903 80.6438L22.7653 78.7688C22.4994 78.7308 22.2283 78.7503 21.9706 78.8262C21.7129 78.9022 21.4745 79.0325 21.2715 79.2085C21.0686 79.3845 20.9058 79.602 20.7942 79.8465C20.6827 80.0909 20.625 80.3565 20.625 80.6251V86.2501H18.75C17.6375 86.2501 16.5499 86.5801 15.6249 87.1981C14.6999 87.8162 13.9789 88.6946 13.5532 89.7226C13.1274 90.7503 13.016 91.8814 13.2331 92.9724C13.4501 94.0637 13.9859 95.0658 14.7725 95.8526C15.5592 96.6392 16.5615 97.175 17.6526 97.392C18.7438 97.6091 19.8748 97.4977 20.9026 97.0719C21.9304 96.6462 22.8089 95.9251 23.427 95.0002C24.045 94.0751 24.375 92.9876 24.375 91.8751V82.7869L33.75 84.1262V88.1251H31.875C30.7624 88.1251 29.6749 88.4551 28.7498 89.0731C27.825 89.6912 27.1038 90.5696 26.6782 91.5976C26.2523 92.6253 26.141 93.7564 26.358 94.8474C26.5751 95.9387 27.1109 96.9408 27.8974 97.7276C28.6842 98.5142 29.6864 99.05 30.7777 99.267C31.8687 99.4841 32.9998 99.3727 34.0275 98.9469C35.0555 98.5212 35.9339 97.8001 36.552 96.8752C37.17 95.9501 37.5 94.8626 37.5 93.7501V82.5001C37.5 82.0487 37.3373 81.6125 37.0416 81.2715C36.7458 80.9305 36.337 80.7078 35.8903 80.6438ZM20.625 91.8751C20.625 92.2458 20.515 92.6084 20.309 92.9169C20.103 93.2251 19.8101 93.4655 19.4675 93.6073C19.1249 93.7494 18.7479 93.7864 18.3842 93.714C18.0205 93.6418 17.6864 93.4632 17.4242 93.2009C17.1619 92.9387 16.9834 92.6047 16.911 92.2409C16.8387 91.8772 16.8758 91.5001 17.0177 91.1576C17.1596 90.815 17.4 90.522 17.7083 90.316C18.0166 90.11 18.3792 90.0001 18.75 90.0001H20.625V91.8751ZM33.75 93.7501C33.75 94.1208 33.6401 94.4834 33.4341 94.7919C33.228 95.1001 32.9351 95.3405 32.5924 95.4823C32.25 95.6244 31.8729 95.6614 31.5091 95.589C31.1454 95.5168 30.8114 95.3382 30.5491 95.0759C30.2869 94.8137 30.1083 94.4797 30.0361 94.1159C29.9637 93.7522 30.0007 93.3751 30.1427 93.0326C30.2845 92.69 30.525 92.397 30.8332 92.191C31.1416 91.985 31.5042 91.8751 31.875 91.8751H33.75V93.7501ZM111.08 56.3061L105 54.7862V53.0265L110.17 54.319C110.651 54.4355 111.159 54.3572 111.582 54.1011C112.006 53.8449 112.311 53.4317 112.431 52.9515C112.551 52.4712 112.476 51.9631 112.223 51.5379C111.97 51.1126 111.559 50.8046 111.08 50.6811L103.58 48.8061C103.303 48.7369 103.015 48.7318 102.736 48.7908C102.457 48.8501 102.196 48.9718 101.971 49.1473C101.746 49.3226 101.565 49.5467 101.44 49.8029C101.315 50.059 101.25 50.3401 101.25 50.6251V58.1251H99.375C98.2624 58.1251 97.1749 58.4551 96.2498 59.0731C95.325 59.6912 94.6038 60.5696 94.1782 61.5976C93.7523 62.6253 93.641 63.7564 93.8581 64.8474C94.0751 65.9387 94.6109 66.9408 95.3974 67.7276C96.1842 68.5142 97.1864 69.05 98.2777 69.267C99.3687 69.484 100.5 69.3727 101.528 68.9469C102.555 68.5212 103.434 67.8001 104.052 66.8752C104.67 65.9501 105 64.8626 105 63.7501V58.6515L110.17 59.944C110.651 60.0605 111.159 59.9822 111.582 59.7261C112.006 59.4699 112.311 59.0567 112.431 58.5765C112.551 58.0962 112.476 57.5881 112.223 57.163C111.97 56.7376 111.559 56.4296 111.08 56.3061ZM101.25 63.7501C101.25 64.1208 101.14 64.4834 100.934 64.7919C100.728 65.1001 100.435 65.3405 100.092 65.4823C99.75 65.6244 99.3729 65.6614 99.0091 65.589C98.6454 65.5168 98.3114 65.3382 98.0491 65.0759C97.7869 64.8137 97.6083 64.4797 97.5361 64.1159C97.4637 63.7522 97.5007 63.3751 97.6427 63.0326C97.7845 62.69 98.025 62.397 98.3332 62.191C98.6416 61.985 99.0042 61.8751 99.375 61.8751H101.25V63.7501ZM91.875 16.8751V9.37505C91.875 9.08393 91.8073 8.79682 91.677 8.53646L89.802 4.78645C89.6463 4.47504 89.4068 4.21313 89.1108 4.03008C88.8145 3.84703 88.4733 3.75007 88.125 3.75005H82.5C82.0027 3.75005 81.5257 3.9476 81.1741 4.29924C80.8226 4.65087 80.625 5.12777 80.625 5.62505V8.93231L78.9481 12.2865C78.8177 12.5468 78.75 12.834 78.75 13.125C78.75 13.4162 78.8177 13.7033 78.9481 13.9636L80.5352 17.1383L78.9996 24.8154L69.457 27.9961L66.2372 26.6204L64.5778 24.1315C65.3004 23.4339 65.8751 22.5979 66.2677 21.6733C66.66 20.7487 66.862 19.7545 66.8618 18.7501V10.2603C66.8618 8.7937 66.3666 7.37004 65.4565 6.22003C64.5464 5.07 63.2747 4.26096 61.8473 3.92402C60.42 3.58709 58.9205 3.74196 57.5923 4.36357C56.2638 4.98518 55.1843 6.0371 54.5285 7.34888L54.4381 7.52981C53.2495 7.64677 52.1187 8.09885 51.1772 8.83346C50.2357 9.56806 49.522 10.555 49.1196 11.6793C48.7172 12.8037 48.6422 14.0192 48.9038 15.1845C49.1651 16.3497 49.7522 17.4168 50.5964 18.2614L51.9089 19.5739C52.083 21.1572 52.7583 22.6435 53.8364 23.8161L52.8935 26.6445C52.8935 26.6445 48.0038 28.2851 47.9482 28.3123C47.9198 28.3257 30.9659 37.7379 30.9659 37.7379C30.7282 37.8699 30.5222 38.052 30.3619 38.2714C30.2018 38.491 30.0912 38.7427 30.0377 39.0092L26.2877 57.7592C26.2631 57.8797 26.2507 58.0022 26.25 58.1251V63.7501C26.25 64.1682 26.3897 64.5744 26.6473 64.9039C26.9046 65.2337 27.2646 65.4676 27.6703 65.569L35.1703 67.444C35.5842 67.5479 36.0211 67.5073 36.4088 67.329C36.7962 67.1506 37.1114 66.8455 37.302 66.4637L39.177 62.7137C39.3073 62.4533 39.375 62.1662 39.375 61.8751C39.375 61.584 39.3073 61.2969 39.177 61.0365L37.6282 57.939L40.9744 46.227L48.2634 41.8531L50.1586 44.3799C51.6734 46.4075 52.4944 48.8694 52.5 51.4004V56.2501C52.5 56.7474 52.6976 57.2244 53.0491 57.5759C53.4007 57.9275 53.8777 58.1251 54.375 58.1251H56.25V61.9707C56.2451 64.2296 56.955 66.432 58.2778 68.263L63.5442 84.0622L54.7242 96.4102C54.5224 96.6936 54.4038 97.0278 54.3813 97.3749C54.3591 97.722 54.4338 98.0687 54.5974 98.3757L51.1741 101.799C50.9147 102.059 50.737 102.389 50.6632 102.748C50.5894 103.107 50.6229 103.481 50.7591 103.821L54.5091 113.196C54.6797 113.623 55.0008 113.972 55.4114 114.177L59.1614 116.052C59.4218 116.182 59.7089 116.25 60 116.25H61.875C62.1213 116.25 62.3651 116.202 62.5927 116.107C62.82 116.013 63.0267 115.875 63.2009 115.701L64.2734 114.628L66.537 115.984C66.8278 116.158 67.1609 116.25 67.5 116.25H75C75.3155 116.25 75.626 116.17 75.9024 116.019C76.1789 115.867 76.4128 115.647 76.582 115.381C76.7515 115.115 76.8509 114.81 76.871 114.496C76.8914 114.181 76.8319 113.866 76.6981 113.58L72.7817 105.213L83.7056 90.3301C85.3641 88.081 86.2559 85.3587 86.25 82.5643V81.8672C86.2498 79.4883 85.6034 77.1544 84.3797 75.1144L75 59.4807V51.7606C75.0038 47.7601 74.0124 43.8216 72.1149 40.2997L88.8213 33.6172C89.1326 33.4927 89.4045 33.2872 89.6093 33.0219C89.8142 32.7565 89.944 32.4413 89.9855 32.1087C89.9855 32.1087 91.875 16.9529 91.875 16.8751ZM71.25 31.3517L75 30.1015V35.1057L71.25 36.6057V31.3517ZM62.517 27.8004C61.6172 28.381 60.5604 28.6702 59.4905 28.6287C58.4203 28.5872 57.3891 28.2172 56.5369 27.5689L57.0938 25.8985C58.462 26.3337 59.9264 26.3661 61.3125 25.9922L62.517 27.8004ZM63.1118 18.7501C63.1081 19.6805 62.7586 20.5763 62.1314 21.2635C61.504 21.9507 60.6438 22.3801 59.7176 22.4683C58.7913 22.5566 57.8653 22.2973 57.1195 21.741C56.3738 21.1846 55.8614 20.3709 55.6821 19.4579L60.1385 15H63.1118V18.7501ZM52.6315 12.9961C52.8005 12.4873 53.1256 12.0446 53.5608 11.7312C53.9958 11.4177 54.5184 11.2493 55.0547 11.25H55.6127C55.961 11.2501 56.3023 11.1531 56.5985 10.97C56.8948 10.7869 57.1343 10.5249 57.2899 10.2134L57.8836 9.02606C58.1616 8.46989 58.6193 8.02388 59.1825 7.76032C59.7457 7.49677 60.3813 7.43107 60.9865 7.5739C61.5917 7.71675 62.1309 8.05974 62.517 8.54731C62.9027 9.0349 63.1127 9.63849 63.1127 10.2603V11.25H59.3627C59.1164 11.25 58.8727 11.2985 58.6451 11.3928C58.4177 11.487 58.211 11.6251 58.0369 11.7992L53.7368 16.0986L53.2479 15.6094C52.9113 15.2749 52.6751 14.8528 52.5661 14.3909C52.4571 13.929 52.4799 13.4458 52.6315 12.9961ZM46.875 33.1876V38.3143L43.9006 40.099L41.8514 35.9766L46.875 33.1876ZM37.5722 44.4844L33.8222 57.6094C33.6933 58.0606 33.7383 58.5437 33.948 58.9632L35.4038 61.8751L34.6207 63.4414L30 62.2862V58.3107L33.5435 40.5919L38.5699 37.7996L40.6748 42.0326L38.4103 43.392C38.0025 43.6367 37.703 44.0272 37.5722 44.4844ZM53.1598 42.1294L50.625 38.75V31.3515L53.8997 30.2597C55.5026 31.617 57.5311 32.3684 59.6316 32.3825C61.7318 32.3965 63.7704 31.6726 65.3913 30.3368L67.5007 31.2378V39.3751C67.5007 39.7454 67.6104 40.1072 67.8157 40.4152C70.0587 43.7733 71.254 47.7221 71.25 51.7606V54.3751H56.25V51.4004C56.243 48.0584 55.1595 44.8076 53.1598 42.1299V42.1294ZM67.1508 85.4654C67.3226 85.2247 67.4351 84.9467 67.4791 84.6542C67.523 84.3619 67.4972 84.0631 67.4039 83.7826L64.302 74.4779L72.6199 82.7747L61.4234 100.741L58.6209 97.4063L67.1508 85.4654ZM60.4427 112.5L57.7261 111.141L54.7001 103.576L56.9866 101.289L59.3421 104.091C59.1877 104.367 59.1059 104.678 59.1045 104.994C59.1028 105.311 59.1818 105.622 59.3339 105.9C59.4858 106.177 59.7059 106.411 59.9733 106.58C60.2405 106.749 60.5466 106.848 60.8623 106.866L59.5263 109.859C59.3393 110.278 59.3121 110.75 59.4502 111.188C59.588 111.625 59.8814 111.997 60.2749 112.232L60.7202 112.499L60.4427 112.5ZM68.0184 112.5L63.6274 109.871L64.9659 106.875H69.4191L72.0523 112.5H68.0184ZM81.1641 77.0429C82.0383 78.5002 82.5 80.1678 82.5 81.8672V82.5655C82.5042 84.5616 81.8672 86.5062 80.6824 88.1129L69.6624 103.125H64.3561L76.5905 83.4917C76.8148 83.1319 76.9104 82.7068 76.8619 82.2856C76.8134 81.8644 76.6238 81.4721 76.3235 81.1726L62.0266 66.9092C60.7242 65.596 59.9956 63.8201 60 61.9707V58.1251H71.25V60.0001C71.25 60.3399 71.3424 60.6734 71.5172 60.9647L81.1641 77.0429ZM88.125 16.7579L86.4016 30.5445L78.75 33.6057V28.8516L81.2177 28.029C81.5313 27.9244 81.8119 27.7388 82.0306 27.4911C82.2495 27.2433 82.3988 26.9419 82.4637 26.6178L84.3387 17.2428C84.4205 16.8339 84.3635 16.4094 84.177 16.0365L82.7213 13.125L84.177 10.2136C84.3073 9.9533 84.375 9.66617 84.375 9.37505V7.50005H86.9663L88.125 9.81778V16.7579ZM51.9509 72.5759C51.7767 72.7501 51.57 72.8881 51.3427 72.9823C51.1151 73.0765 50.8713 73.1251 50.625 73.1251C50.3787 73.1251 50.1349 73.0765 49.9073 72.9823C49.68 72.8881 49.4733 72.7501 49.2991 72.5759L48.2006 71.4776C47.1827 70.4651 46.3758 69.2609 45.8264 67.9344C45.277 66.608 44.996 65.1858 45 63.7501C45 63.2527 45.1976 62.7758 45.5491 62.4242C45.9007 62.0726 46.3777 61.8751 46.875 61.8751C47.3723 61.8751 47.8493 62.0726 48.2009 62.4242C48.5524 62.7758 48.75 63.2527 48.75 63.7501C48.7474 64.6932 48.9319 65.6272 49.2928 66.4986C49.6538 67.3697 50.1839 68.1608 50.8526 68.8257L51.9509 69.9242C52.125 70.0983 52.2631 70.3051 52.3573 70.5324C52.4515 70.76 52.5 71.0037 52.5 71.2501C52.5 71.4964 52.4515 71.7401 52.3573 71.9677C52.2631 72.1951 52.125 72.4018 51.9509 72.5759ZM22.5961 38.7823L23.1452 37.1347C23.6395 35.6379 24.4256 34.254 25.4583 33.0631C26.4912 31.8722 27.7498 30.8982 29.1616 30.1972C29.6055 29.9825 30.116 29.9513 30.5827 30.1102C31.0493 30.2694 31.4346 30.6057 31.6552 31.0468C31.8755 31.4876 31.9134 31.9976 31.7606 32.4664C31.6078 32.9351 31.2764 33.3249 30.8384 33.5511C29.8678 34.0329 29.0027 34.7028 28.2928 35.5215C27.5831 36.3401 27.0427 37.2915 26.703 38.3204L26.1539 39.9676C25.9966 40.4394 25.6584 40.8294 25.2138 41.0518C24.769 41.2742 24.2541 41.311 23.7823 41.1537C23.3105 40.9965 22.9204 40.6583 22.698 40.2136C22.4756 39.7688 22.4389 39.2539 22.5961 38.7821V38.7823ZM33.948 29.9011C33.7256 29.4563 33.6891 28.9416 33.8463 28.4698C34.0036 27.998 34.3416 27.608 34.7864 27.3856L36.6614 26.4481C36.882 26.3356 37.1224 26.2681 37.3692 26.2491C37.6158 26.2301 37.864 26.2601 38.0991 26.3375C38.3341 26.4148 38.5514 26.5379 38.7387 26.6996C38.9259 26.8613 39.0795 27.0586 39.1901 27.2799C39.3007 27.5011 39.3666 27.7423 39.3837 27.9891C39.4008 28.2359 39.3687 28.4839 39.2895 28.7183C39.2105 28.9526 39.0856 29.1692 38.9224 29.3553C38.7593 29.5411 38.5608 29.693 38.3386 29.802L36.4636 30.7395C36.2435 30.8499 36.0038 30.9158 35.7579 30.9333C35.5123 30.9509 35.2657 30.9197 35.032 30.8419C34.7984 30.7641 34.5823 30.6408 34.3964 30.4796C34.2103 30.3181 34.058 30.1215 33.948 29.9011ZM92.5713 39.991C92.1096 40.1757 91.5935 40.1694 91.1363 39.9734C90.6792 39.7775 90.3188 39.4081 90.1341 38.9464C89.9494 38.4847 89.9557 37.9686 90.1516 37.5113C90.3476 37.0543 90.717 36.6938 91.1787 36.5091C91.5134 36.3758 91.8148 36.1707 92.062 35.9086C92.3093 35.6464 92.4961 35.3335 92.6098 34.9915L93.8461 31.2821C93.9239 31.0484 94.0472 30.8326 94.2084 30.6465C94.3697 30.4604 94.5661 30.308 94.7864 30.1979C95.0067 30.0877 95.2465 30.0221 95.4921 30.0047C95.7377 29.9872 95.9843 30.0183 96.218 30.0961C96.4517 30.174 96.6675 30.2972 96.8536 30.4585C97.0397 30.6197 97.192 30.8161 97.3022 31.0365C97.4124 31.2568 97.478 31.4965 97.4953 31.7422C97.5129 31.9878 97.4817 32.2344 97.4039 32.468L96.1674 36.1772C95.8819 37.0365 95.412 37.823 94.7909 38.4816C94.1698 39.1404 93.4123 39.6556 92.5713 39.991ZM87.991 39.8035C88.0824 40.032 88.1281 40.2765 88.125 40.5228C88.122 40.7689 88.0706 41.0122 87.9736 41.2386C87.8766 41.465 87.7359 41.6698 87.5597 41.8419C87.3837 42.0139 87.1751 42.1496 86.9466 42.241L85.0716 42.991C84.8431 43.0824 84.5986 43.1281 84.3523 43.1251C84.1062 43.122 83.8629 43.0707 83.6365 42.9737C83.4101 42.8766 83.2052 42.736 83.0332 42.5597C82.8612 42.3837 82.7255 42.1751 82.6341 41.9466C82.4494 41.4849 82.4555 40.9688 82.6514 40.5115C82.8474 40.0545 83.2167 39.6938 83.6785 39.5091L85.5535 38.7591C85.782 38.6677 86.0264 38.622 86.2727 38.6251C86.5188 38.6281 86.7621 38.6794 86.9885 38.7765C87.2149 38.8735 87.4198 39.0141 87.5918 39.1904C87.7638 39.3664 87.8995 39.575 87.991 39.8035ZM45 56.2501V54.3751C45 53.8777 45.1976 53.4008 45.5491 53.0492C45.9007 52.6976 46.3777 52.5001 46.875 52.5001C47.3723 52.5001 47.8493 52.6976 48.2009 53.0492C48.5524 53.4008 48.75 53.8777 48.75 54.3751V56.2501C48.75 56.7474 48.5524 57.2244 48.2009 57.5759C47.8493 57.9275 47.3723 58.1251 46.875 58.1251C46.3777 58.1251 45.9007 57.9275 45.5491 57.5759C45.1976 57.2244 45 56.7474 45 56.2501Z" fill="url(#paint0_linear_14_55)"/>
<defs>
<linearGradient id="paint0_linear_14_55" x1="22.0887" y1="103.165" x2="105.203" y2="20.0508" gradientUnits="userSpaceOnUse">
<stop stop-color="#41DFD0"/>
<stop offset="1" stop-color="#EE83EF"/>
</linearGradient>
</defs>
</svg>
