<svg width="120" height="120" viewBox="0 0 120 120" fill="none" xmlns="http://www.w3.org/2000/svg">
<g clip-path="url(#clip0_14_235)">
<path d="M94.9999 0C81.3874 0 70.2824 10.9675 70.0249 24.5225L67.7874 31.2275L4.04992 102.598L8.96242 107.5L0.732422 115.732L4.26742 119.268L12.4999 111.032L17.3749 115.898L50.9774 86.9275C51.4049 87.265 51.9199 87.5 52.4999 87.5C53.0249 87.5 53.4999 87.3475 53.9024 87.075C54.0249 86.9725 54.1524 86.875 54.2749 86.7725L57.4999 84.185V120H62.4999V80.17L67.4999 76.16V120H72.4999V72.1475L76.2999 69.095L76.5274 68.6225C77.2574 67.1725 77.5149 65.6125 77.4924 64.0675L91.2299 52.225L98.9274 49.66C110.84 47.7625 120 37.4375 120 25C120 11.225 108.775 0 94.9999 0ZM72.2499 65.9475L55.4999 79.4C55.0474 76.925 54.0499 74.65 53.2499 73.1L71.0499 58.8225C72.0249 60.975 72.9499 63.8725 72.2499 65.9475ZM76.3299 58.48C75.3774 55.9425 74.1499 54.0275 73.8749 53.625L72.3749 51.35L46.6499 71.975L47.9249 73.875C48.6724 75.025 50.2174 77.9625 50.5974 80.6525L17.6249 109.1L10.9499 102.397L71.0799 35.05C78.7124 35.53 86.7449 41.0375 87.4299 48.9175L76.3299 58.48ZM92.1824 46.635C90.4724 37.7075 82.0949 31.5475 73.3824 30.2525L74.2724 27.5775C83.8399 28.4075 93.8249 35.7975 94.9024 45.7275L92.1824 46.635ZM99.7424 44.4175C98.0699 33.2225 87.5399 23.825 75.1524 22.63C75.5924 18.9225 77.0549 15.5275 79.2449 12.7225C79.9399 12.555 80.3874 12.4675 80.4099 12.465C86.7074 11.415 94.1074 13.88 100.215 19.0575C106.307 24.215 109.957 31.0625 110 37.3875C109.985 37.6175 109.995 37.8775 110.015 38.1875C107.347 41.2175 103.785 43.4275 99.7424 44.4175ZM103.447 15.24C98.0549 10.675 91.7149 7.91 85.6274 7.345C88.4249 5.85 91.6149 5 94.9999 5C106.025 5 115 13.975 115 25C115 27.115 114.652 29.15 114.04 31.065C112.407 25.325 108.71 19.7025 103.447 15.24Z" fill="white"/>
</g>
<defs>
<clipPath id="clip0_14_235">
<rect width="120" height="120" fill="white"/>
</clipPath>
</defs>
</svg>
