<svg width="100" height="135" viewBox="0 0 100 135" fill="none" xmlns="http://www.w3.org/2000/svg">
<path d="M39.5173 70.4225C39.5173 70.4225 43.2196 73.9637 46.1974 73.5613C46.8413 73.4808 47.4449 72.7565 47.123 72.0321C46.6803 71.1871 45.8352 70.7042 45.3121 70.1408C45.0707 69.8993 45.5536 69.7384 45.8755 69.8591C46.1572 69.9798 46.4791 70.0603 46.5998 69.9396C46.8815 69.6177 46.3181 69.0945 45.9157 68.7323C45.1511 68.0885 42.5354 67.3239 41.1672 67.2434L39.5173 70.4225Z" fill="#F9AB8B"/>
<path d="M37.7741 70.3766L39.7876 71.4753L42.2163 67.0245L40.2029 65.9258L37.7741 70.3766Z" fill="#FCD6D5"/>
<path d="M17.1028 36.2575C16.7004 37.6257 16.6199 39.4366 16.6199 42.012C16.6199 50.6639 19.6782 56.5794 19.6782 56.5794L25.634 54.1247C25.634 54.1247 26.2778 47.6056 24.467 41.1267C23.9841 39.4366 22.8171 36.9416 22.0122 35.4929C20.8855 33.4406 18.0283 33.0382 17.1028 36.2575Z" fill="#150D09"/>
<path d="M25.6339 54.1248C25.6339 54.1248 27.3643 55.7747 32.5554 59.9598C34.9296 61.8914 36.7807 62.8169 40.8049 65.9557L38.2294 71.0262C27.0021 63.8632 27.1228 63.8632 22.495 60.8853C21.2476 60.0805 20.0805 58.994 19.3562 55.9356L25.6339 54.1248Z" fill="#150D09"/>
<path d="M54.7687 54.6077C54.5675 55.7747 53.7626 56.8612 52.7164 56.8612C51.6701 56.8612 51.1469 55.8552 50.825 54.7284C50.2616 52.7164 49.9397 49.4971 49.9397 47.8069C49.9397 45.9156 50.0604 42.4548 50.5031 40.4025C50.7445 39.2757 51.2677 38.1892 52.7566 38.1892C54.0846 38.1892 54.8894 39.155 55.0906 40.322C55.5735 42.6963 55.5333 45.4327 55.5333 47.4045C55.5333 49.6983 55.2113 52.2335 54.7687 54.6077Z" fill="#E78E78"/>
<path d="M54.4466 55.5332C54.4466 55.5332 50.0201 63.7022 43.5412 70.2616L42.0925 69.4165C42.0925 69.4165 47.1227 59.1147 51.1871 53.6419C51.1871 53.6419 52.3943 52.3541 53.7223 53.1187C54.8893 53.7626 54.4466 55.5332 54.4466 55.5332Z" fill="#E78E78"/>
<path d="M42.0926 69.4165C42.0926 69.4165 39.155 71.3078 38.4306 76.0161C38.3904 76.3783 38.4306 77.1831 39.0342 77.1831C39.3562 77.1831 39.6379 76.9819 40.2012 76.3783C40.4829 76.0563 40.9256 75.493 41.5694 74.3662C41.4487 75.0503 41.2475 76.1368 41.6902 76.1771C42.3743 76.2173 42.6157 72.5956 43.1389 71.2274C43.2596 70.9054 43.2998 70.664 43.501 70.3018L42.0926 69.4165Z" fill="#E78E78"/>
<path d="M51.1874 127.082C51.1874 127.082 53.119 125.795 54.447 122.012L53.7227 112.595L58.3907 112.636L58.109 120.201L53.8434 127.163C53.8434 127.163 50.4631 129.618 51.1874 127.082Z" fill="#F8A488"/>
<path d="M58.0687 120.241C58.0687 120.241 55.0103 124.507 53.6823 126.278C53.4811 126.559 53.2397 126.801 52.4751 127.525C51.8715 128.089 51.0264 127.726 51.3081 127.002C51.3081 127.002 49.9801 128.089 48.7326 128.169C48.3705 128.209 47.7668 128.531 47.7668 129.014C47.7668 129.376 47.9681 129.859 48.8936 129.859C49.5777 129.859 52.3141 129.899 53.4409 129.859C54.2457 129.859 55.131 129.054 55.8151 128.008C56.7407 126.6 58.1894 123.903 58.1894 123.903V129.94H58.9137C58.9137 129.94 58.9137 127.445 58.9137 126.519C58.9137 125.875 60.1612 124.467 60.1612 122.736C60.121 120.563 58.0687 120.241 58.0687 120.241Z" fill="#E9E9EA"/>
<path d="M39.7587 127.082C39.7587 127.082 41.6903 125.795 43.0183 122.012L42.2939 112.595L46.962 112.636L46.6803 120.201L42.4147 127.163C42.4147 127.163 39.0344 129.618 39.7587 127.082Z" fill="#F8A488"/>
<path d="M46.6802 120.241C46.6802 120.241 43.6219 124.507 42.2939 126.278C42.0927 126.559 41.8513 126.801 41.0867 127.525C40.483 128.089 39.638 127.726 39.9197 127.002C39.9197 127.002 38.5917 128.089 37.3442 128.169C36.982 128.209 36.3784 128.531 36.3784 129.014C36.3784 129.376 36.5796 129.859 37.5052 129.859C38.1893 129.859 40.9257 129.899 42.0525 129.859C42.8573 129.859 43.7426 129.054 44.4267 128.008C45.3523 126.6 46.801 123.903 46.801 123.903V129.94H47.5253C47.5253 129.94 47.5253 127.445 47.5253 126.519C47.5253 125.875 48.7728 124.467 48.7728 122.736C48.6923 120.563 46.6802 120.241 46.6802 120.241Z" fill="#E9E9EA"/>
<path d="M48.3301 63.7826C48.3301 63.7826 32.6762 79.5573 30.1007 112.917C29.8593 116.016 29.7385 119.316 29.7385 122.777C29.7385 122.777 39.8391 127.726 55.1309 127.646C65.2315 127.606 84.8291 125.433 94.3663 119.074C94.3663 119.074 85.5132 116.982 84.1852 109.457C82.6158 100.684 79.4367 91.2675 75.3321 83.1388C70.7848 74.1649 63.5011 66.7605 57.5856 63.7021L48.3301 63.7826Z" fill="#FCD6D5"/>
<path d="M44.467 42.0523C44.467 42.0523 46.3181 39.7183 48.0082 38.3904C50.2215 36.6197 50.5032 34.2857 50.5032 34.0443C50.5032 33.4809 50.463 34.0443 50.463 32.9175C50.463 31.0262 49.5374 28.9336 49.5374 28.9336L56.0163 28.0081C56.0163 28.0081 55.3724 29.6177 55.5736 30.7847C55.8956 32.7968 55.9358 34.3662 57.1431 36.4185C58.1893 38.1891 59.1551 41.5694 59.1551 42.495V42.6962H44.4268L44.467 42.0523Z" fill="#F8A488"/>
<path d="M57.4246 63.7424L48.2898 63.7827L46.8814 48.6519C43.0182 45.9155 44.3461 42.0925 44.3461 42.0925H59.2757C59.5574 43.3803 59.8793 46.5593 59.0745 49.6579C56.66 58.9135 56.7808 62.8974 57.4246 63.7424Z" fill="#FCD6D5"/>
<path d="M43.662 22.2939C43.5413 23.7023 43.0182 24.306 42.3743 24.7889C42.0926 24.9901 42.1329 25.312 42.3341 25.3522C42.9377 25.5132 43.0584 26.1973 43.1389 26.5192C43.2194 26.9619 43.5011 27.0021 43.4608 27.3643C43.4608 27.5253 43.662 27.807 43.5815 27.9277C43.4608 28.1289 43.3401 28.3703 43.5815 28.4508C43.5815 28.4508 43.9437 28.6923 43.823 29.6983C43.7425 30.5836 44.829 31.147 46.0765 30.8653C46.8411 30.7043 50.1007 29.8995 50.8653 29.7386C51.1469 29.6581 53.32 29.2557 55.6942 28.4508C56.3381 28.0484 56.9417 27.6058 57.4246 27.1229C60.2013 25.2315 61.8109 17.988 55.4125 14.0846C53.7626 13.0786 49.2153 13.4005 46.3582 14.648C44.5473 15.4528 44.0242 16.6601 43.7023 17.7064C43.2194 19.2758 43.5011 20.9659 43.5815 21.8915L43.662 22.2939Z" fill="#F8A488"/>
<path d="M44.0644 20.8048C44.0644 20.8048 44.3058 20.6841 44.668 20.6438C45.0302 20.5633 45.5131 20.5231 45.996 20.6438C46.2374 20.6841 46.4789 20.7243 46.6801 20.845C46.8813 20.9255 47.0825 21.006 47.2032 21.1267C47.4849 21.3279 47.6861 21.4486 47.6861 21.4486C47.7263 21.4889 47.7263 21.5291 47.7263 21.5694C47.6861 21.6096 47.6459 21.6096 47.6056 21.6096C47.6056 21.6096 47.4044 21.5291 47.1227 21.3682C47.002 21.2877 46.8008 21.2474 46.5996 21.2072C46.3984 21.1267 46.1972 21.167 45.996 21.1267C45.5935 21.1267 45.1911 21.2072 44.8692 21.3279C44.5875 21.4084 44.4265 21.5291 44.4265 21.5291C44.2253 21.6096 44.0241 21.5291 43.9034 21.3279C43.7827 21.1267 43.8632 20.8853 44.0644 20.8048Z" fill="#AF5657"/>
<path d="M43.3805 27.2031C43.3805 27.2031 43.3402 27.686 43.5414 28.1287L45.0706 27.3239L43.3805 27.2031Z" fill="#FCD6D5"/>
<path d="M43.139 26.5192C43.3 26.4789 43.4207 26.5192 43.7426 26.6801C43.9841 26.7606 44.9096 27.002 45.5133 27.0423C45.634 27.0423 45.6742 27.2033 45.5937 27.2435C44.2255 27.7666 43.0988 27.2435 43.0988 27.2435C43.0988 27.2435 42.7366 27.0423 42.8171 26.8008C42.8976 26.5996 43.0183 26.5594 43.139 26.5192Z" fill="#F37978"/>
<path d="M43.2193 28.0482C43.34 27.9275 43.4607 27.8873 43.8229 27.8068C44.0644 27.7666 44.9899 27.4044 45.4728 27.0825C45.5935 27.002 45.7143 27.1227 45.6338 27.2032C44.829 28.4104 43.6217 28.6116 43.6217 28.6116C43.6217 28.6116 43.2193 28.6921 43.1388 28.4104C43.0583 28.2494 43.1388 28.1287 43.2193 28.0482Z" fill="#F37978"/>
<path d="M44.5071 23.1388C44.5876 22.5754 44.99 22.0522 45.996 22.0522C46.8411 22.0522 47.2033 22.7766 47.2435 23.3802C47.2435 23.3802 46.5192 23.018 45.9155 22.9376C45.0705 22.8571 44.5071 23.1388 44.5071 23.1388Z" fill="#E87F73"/>
<path d="M45.7144 26.3179C45.9961 27.002 47.0826 27.2434 48.1289 26.8008C49.1752 26.3984 49.7788 25.4728 49.4971 24.7887C49.2154 24.1046 48.1289 23.8632 47.0826 24.3058C46.0766 24.7082 45.4327 25.6338 45.7144 26.3179Z" fill="url(#paint0_radial_14_146)"/>
<path d="M44.1047 17.7062C44.1047 17.7062 44.1047 17.666 44.1047 17.7062C44.2254 17.666 44.3462 17.5855 44.5071 17.505C45.9961 16.7002 47.3643 18.833 48.5313 20.6841C50.1409 23.2596 52.1128 23.0584 53.9236 22.9376C53.9236 22.9376 53.481 24.3461 53.7627 26.1167C53.9236 27.1227 54.8894 28.0483 55.493 28.169C55.5735 28.33 55.6138 28.4909 55.7345 28.6519C55.8552 28.8934 56.0162 29.0946 56.2174 29.336C56.5796 29.7384 56.982 30.1006 57.3844 30.4225C56.982 30.0604 56.6198 29.6579 56.3381 29.2555C56.2174 29.0543 56.0967 28.8129 55.9759 28.5714C55.9357 28.5312 55.9357 28.4507 55.8954 28.3702C56.0162 28.4909 56.1369 28.6117 56.2576 28.6922C56.4991 28.8934 56.7405 29.0543 57.0222 29.1751C56.7808 28.9738 56.5796 28.7726 56.3784 28.5714C56.2576 28.4105 56.1771 28.2897 56.0967 28.1288C56.2174 28.0885 56.3381 28.0483 56.4588 27.9678C56.7003 28.4909 57.5051 29.9396 59.3562 30.0201C60.4427 30.0604 60.9659 29.5372 61.2476 29.0141C61.489 28.9336 61.7305 28.8129 61.9317 28.6117C62.2134 28.33 62.4548 28.0483 62.6158 27.6459C63.4608 27.4447 64.4266 26.8008 64.2657 24.9095C64.1449 23.7022 63.5816 23.1388 63.1389 22.9376C63.1791 22.6157 63.0987 22.2938 62.9779 21.9718C62.817 21.6499 62.6158 21.4085 62.3743 21.1268C62.2134 20.6841 62.0121 20.2415 61.6902 19.9598C61.0061 19.3561 60.2818 19.2354 59.7586 19.2757C58.6721 15.171 54.0443 11.2676 46.5594 14.2857C45.8753 14.5674 45.3522 14.8491 44.9498 15.171C44.9095 15.2113 43.3804 16.2173 42.7365 16.2575C42.0926 16.2575 42.3341 18.2696 44.1047 17.7062ZM62.7365 22.7364C62.7365 22.7364 62.6962 22.2938 62.5755 21.6901C62.656 21.8109 62.7767 21.8914 62.8572 22.0121C63.0182 22.2535 63.0987 22.5755 63.1389 22.8571C62.8975 22.7767 62.7365 22.7364 62.7365 22.7364ZM61.3683 28.8129C61.5695 28.2495 61.5292 27.7666 61.5292 27.7666C61.5292 27.7666 61.6902 27.8068 61.9719 27.7666C61.9317 27.9678 61.8512 28.2093 61.7305 28.4105C61.6097 28.5312 61.489 28.6922 61.3683 28.8129Z" fill="#8C3F42"/>
<path d="M59.0745 19.2354C59.0745 19.1549 59.2757 19.1146 59.5574 19.1146C59.5976 19.1146 59.6378 19.1146 59.7183 19.1146C59.6781 19.0744 59.6378 19.0342 59.5976 19.0342C59.3964 18.833 59.2757 18.6317 59.3562 18.5915C59.3964 18.5513 59.5976 18.6317 59.7988 18.833C59.839 18.8732 59.8793 18.9134 59.8793 18.9537C59.8793 18.9134 59.8793 18.8732 59.8793 18.7927C59.8793 18.511 59.9598 18.3098 60 18.3098C60.0805 18.3098 60.161 18.511 60.161 18.7927C60.161 18.833 60.161 18.8732 60.161 18.9537C60.2012 18.9134 60.2415 18.8732 60.2415 18.833C60.4427 18.6317 60.6439 18.511 60.6841 18.5915C60.7244 18.6317 60.6439 18.833 60.4427 19.0342C60.4024 19.0744 60.3622 19.1146 60.3219 19.1146C60.3622 19.1146 60.4024 19.1146 60.4829 19.1146C60.7646 19.1146 60.9658 19.1951 60.9658 19.2354C60.9658 19.3159 60.7244 19.3963 60.4829 19.3963C60.4427 19.3963 60.4024 19.3963 60.3219 19.3963C60.3622 19.4366 60.4024 19.4768 60.4427 19.4768C60.6439 19.678 60.7646 19.8792 60.6841 19.9195C60.6439 19.9597 60.4427 19.8792 60.2415 19.678C60.2012 19.6378 60.161 19.5975 60.161 19.5573C60.161 19.5975 60.161 19.6378 60.161 19.7183C60.161 20 60.0805 20.2012 60 20.2012C59.9195 20.2012 59.8793 19.9597 59.8793 19.7183C59.8793 19.678 59.8793 19.6378 59.8793 19.5573C59.839 19.5975 59.7988 19.6378 59.7988 19.678C59.5976 19.8792 59.3964 20 59.3562 19.9195C59.3159 19.8792 59.3964 19.678 59.5976 19.4768C59.6378 19.4366 59.6781 19.3963 59.7183 19.3963C59.6781 19.3963 59.6378 19.3963 59.5574 19.3963C59.3159 19.3963 59.0745 19.3159 59.0745 19.2354Z" fill="#FCD6D5"/>
<path d="M58.8331 21.4488C58.7928 21.4085 58.9136 21.2073 59.1148 21.0866C59.155 21.0464 59.1953 21.0464 59.2355 21.0061C59.1953 21.0061 59.155 21.0061 59.1148 21.0061C58.8733 20.9659 58.6721 20.8854 58.6721 20.8049C58.6721 20.7244 58.8733 20.7244 59.155 20.7647C59.1953 20.7647 59.2355 20.7647 59.2757 20.8049C59.2355 20.7647 59.2355 20.7244 59.1953 20.6842C59.0343 20.483 58.994 20.2818 59.0343 20.2415C59.0745 20.2013 59.2757 20.322 59.3965 20.5232C59.4367 20.5635 59.4367 20.6037 59.4769 20.6439C59.4769 20.6037 59.4769 20.5635 59.4769 20.5232C59.5172 20.2818 59.5977 20.0806 59.6782 20.0806C59.7586 20.0806 59.7586 20.322 59.7184 20.5635C59.7184 20.6037 59.6782 20.6439 59.6782 20.6842C59.7184 20.6439 59.7586 20.6439 59.7989 20.6037C60.0001 20.4427 60.2013 20.4025 60.2415 20.4427C60.2818 20.483 60.161 20.6842 59.9598 20.8049C59.9196 20.8452 59.8794 20.8452 59.8391 20.8854C59.8794 20.8854 59.9196 20.8854 59.9598 20.8854C60.2013 20.9256 60.4025 21.0061 60.4025 21.0866C60.4025 21.1671 60.161 21.1671 59.9196 21.1268C59.8794 21.1268 59.8391 21.1268 59.7989 21.0866C59.8391 21.1268 59.8391 21.1671 59.8794 21.2073C60.0403 21.4085 60.0806 21.6097 60.0403 21.65C60.0001 21.6902 59.7989 21.5695 59.6782 21.3683C59.6379 21.3281 59.6379 21.2878 59.5977 21.2476C59.5977 21.2878 59.5977 21.3281 59.5977 21.3683C59.5574 21.6097 59.4769 21.8109 59.3965 21.8109C59.316 21.8109 59.316 21.5695 59.3562 21.3281C59.3562 21.2878 59.3562 21.2476 59.3965 21.2073C59.3562 21.2476 59.316 21.2476 59.2757 21.2878C59.0745 21.4085 58.8733 21.489 58.8331 21.4488Z" fill="#FCD6D5"/>
<path d="M60.4828 20.7646C60.4425 20.7244 60.5633 20.6037 60.684 20.4829C60.7242 20.4829 60.7242 20.4427 60.7645 20.4427C60.7242 20.4427 60.684 20.4427 60.684 20.4427C60.4828 20.4024 60.3621 20.322 60.3621 20.2817C60.3621 20.2415 60.523 20.2012 60.7242 20.2415C60.7645 20.2415 60.8047 20.2415 60.8047 20.2817C60.8047 20.2415 60.7645 20.2415 60.7242 20.2012C60.6035 20.0403 60.5633 19.8793 60.6035 19.8793C60.6438 19.8391 60.7645 19.9598 60.8852 20.1208C60.9254 20.161 60.9254 20.161 60.9254 20.2012C60.9254 20.161 60.9254 20.1208 60.9254 20.1208C60.9657 19.9196 61.0462 19.7988 61.0864 19.7988C61.1267 19.7988 61.1669 19.9598 61.1266 20.161C61.1266 20.2012 61.1267 20.2415 61.0864 20.2415C61.1267 20.2012 61.1266 20.2012 61.1669 20.161C61.3279 20.0403 61.4888 20 61.4888 20.0403C61.5291 20.0805 61.4083 20.2012 61.2474 20.322C61.2071 20.3622 61.2071 20.3622 61.1669 20.3622C61.2071 20.3622 61.2474 20.3622 61.2474 20.3622C61.4486 20.4024 61.5693 20.4829 61.5693 20.5232C61.5693 20.5634 61.4083 20.6037 61.2071 20.5634C61.1669 20.5634 61.1266 20.5634 61.1266 20.5232C61.1669 20.5634 61.1669 20.5634 61.2071 20.6037C61.3279 20.7646 61.3681 20.9256 61.3279 20.9256C61.2876 20.9658 61.1669 20.8451 61.0462 20.6841C61.0059 20.6439 61.0059 20.6439 61.0059 20.6037C61.0059 20.6439 61.0059 20.6841 61.0059 20.6841C60.9657 20.8853 60.8852 21.0061 60.845 21.0061C60.8047 21.0061 60.7645 20.8451 60.8047 20.6439C60.8047 20.6037 60.8047 20.5634 60.845 20.5634C60.8047 20.5634 60.8047 20.6037 60.7645 20.6037C60.6438 20.7646 60.4828 20.8049 60.4828 20.7646Z" fill="#FCD6D5"/>
<path d="M57.9879 20.3622C57.9477 20.322 58.0684 20.161 58.2696 20.0001C58.3098 19.9598 58.3501 19.9598 58.3903 19.9196C58.3501 19.9196 58.3098 19.9196 58.2696 19.9196C58.0282 19.8793 57.8672 19.7989 57.8672 19.7184C57.8672 19.6379 58.0684 19.6379 58.3098 19.6781C58.3501 19.6781 58.3903 19.6781 58.4306 19.7184C58.3903 19.6781 58.3903 19.6379 58.3501 19.6379C58.2294 19.4367 58.1489 19.2757 58.1891 19.2355C58.2294 19.1952 58.3903 19.316 58.5513 19.5172C58.5915 19.5574 58.5915 19.5976 58.6318 19.6379C58.6318 19.5976 58.6318 19.5574 58.6318 19.5172C58.672 19.2757 58.7525 19.1147 58.833 19.1147C58.9135 19.1147 58.9135 19.316 58.8732 19.5574C58.8732 19.5976 58.8732 19.6379 58.833 19.6781C58.8732 19.6379 58.9135 19.6379 58.9135 19.5976C59.1147 19.4769 59.2756 19.3964 59.3159 19.4367C59.3561 19.4769 59.2354 19.6379 59.0342 19.7989C58.9939 19.8391 58.9537 19.8391 58.9135 19.8793C58.9537 19.8793 58.9939 19.8793 59.0342 19.8793C59.2756 19.9196 59.4366 20.0001 59.4366 20.0805C59.4366 20.161 59.2354 20.161 58.9939 20.1208C58.9537 20.1208 58.9135 20.1208 58.8732 20.0805C58.9135 20.1208 58.9135 20.161 58.9537 20.161C59.0744 20.3622 59.1549 20.5232 59.1147 20.5634C59.0744 20.6037 58.9135 20.483 58.7525 20.2817C58.7123 20.2415 58.7123 20.2013 58.672 20.161C58.672 20.2013 58.672 20.2415 58.672 20.2817C58.6318 20.5232 58.5513 20.6842 58.4708 20.6842C58.3903 20.6842 58.3903 20.483 58.4306 20.2415C58.4306 20.2013 58.4306 20.161 58.4708 20.1208C58.4306 20.161 58.3903 20.161 58.3903 20.2013C58.2294 20.3622 58.0282 20.4025 57.9879 20.3622Z" fill="#FCD6D5"/>
<path d="M58.3502 18.9135C58.3099 18.8732 58.4306 18.7525 58.5514 18.672C58.5916 18.672 58.5916 18.6318 58.6319 18.6318C58.5916 18.6318 58.5514 18.6318 58.5514 18.6318C58.3904 18.5915 58.2294 18.5513 58.2697 18.4708C58.2697 18.4306 58.4306 18.3903 58.5916 18.4306C58.6319 18.4306 58.6721 18.4306 58.6721 18.4306C58.6319 18.3903 58.6319 18.3903 58.6319 18.3501C58.5514 18.2294 58.4709 18.0684 58.5111 18.0281C58.5514 17.9879 58.6721 18.1086 58.7526 18.2294C58.7526 18.2696 58.7928 18.2696 58.7928 18.3098C58.7928 18.2696 58.7928 18.2696 58.7928 18.2294C58.8331 18.0684 58.8733 17.9074 58.9538 17.9477C58.994 17.9477 59.0343 18.1086 58.994 18.2696C58.994 18.3098 58.994 18.3501 58.994 18.3501C59.0343 18.3501 59.0343 18.3098 59.0745 18.3098C59.2355 18.1891 59.3562 18.1489 59.3964 18.1891C59.4367 18.2294 59.316 18.3501 59.1952 18.4306C59.155 18.4306 59.155 18.4708 59.1148 18.4708C59.155 18.4708 59.155 18.4708 59.1952 18.4708C59.3562 18.511 59.4769 18.5513 59.4769 18.5915C59.4769 18.6318 59.316 18.672 59.155 18.6318C59.1148 18.6318 59.1148 18.6318 59.0745 18.6318C59.0745 18.672 59.1148 18.672 59.1148 18.7123C59.1952 18.8732 59.2757 18.9939 59.2355 19.0342C59.1952 19.0744 59.0745 18.9537 58.994 18.833C58.9538 18.7927 58.9538 18.7927 58.9538 18.7525C58.9538 18.7927 58.9538 18.833 58.9538 18.833C58.9135 18.9939 58.8733 19.1147 58.8331 19.1147C58.7928 19.1147 58.7526 18.9537 58.7928 18.7927C58.7928 18.7525 58.7928 18.7123 58.8331 18.7123C58.7928 18.7123 58.7928 18.7525 58.7526 18.7525C58.5111 18.9135 58.3904 18.9537 58.3502 18.9135Z" fill="#FCD6D5"/>
<path d="M60.6036 19.5171C60.5634 19.4768 60.6841 19.3561 60.8451 19.2354C60.8853 19.1951 60.8853 19.1951 60.9256 19.1951C60.8853 19.1951 60.8451 19.1951 60.8048 19.1951C60.6036 19.1549 60.4829 19.0744 60.4829 19.0342C60.4829 18.9939 60.6439 18.9537 60.8451 18.9939C60.8853 18.9939 60.9256 18.9939 60.9658 19.0342C60.9256 18.9939 60.9256 18.9939 60.8853 18.9537C60.7646 18.7927 60.7244 18.6318 60.7646 18.6318C60.8048 18.5915 60.9256 18.7122 61.0463 18.8732C61.0463 18.9134 61.0865 18.9134 61.0865 18.9537C61.0865 18.9134 61.0865 18.8732 61.0865 18.8732C61.1268 18.672 61.2072 18.5513 61.2475 18.5513C61.2877 18.5513 61.328 18.7122 61.2877 18.9134C61.2877 18.9537 61.2877 18.9939 61.2475 18.9939C61.2877 18.9537 61.2877 18.9537 61.328 18.9134C61.4889 18.7927 61.6499 18.7525 61.6499 18.7927C61.6901 18.833 61.5694 18.9537 61.4085 19.0744C61.3682 19.1147 61.3682 19.1147 61.328 19.1147C61.3682 19.1147 61.4085 19.1147 61.4085 19.1147C61.6097 19.1549 61.7304 19.2354 61.7304 19.2756C61.7304 19.3159 61.5694 19.3561 61.3682 19.3159C61.328 19.3159 61.2877 19.3159 61.2877 19.2756C61.328 19.3159 61.328 19.3159 61.328 19.3561C61.4487 19.5171 61.4889 19.678 61.4487 19.678C61.4085 19.7183 61.2877 19.5975 61.167 19.4366C61.1268 19.3963 61.1268 19.3963 61.1268 19.3561C61.1268 19.3963 61.1268 19.4366 61.1268 19.4366C61.0865 19.6378 61.006 19.7585 60.9658 19.7585C60.9256 19.7585 60.8853 19.5975 60.9256 19.3963C60.9256 19.3561 60.9256 19.3159 60.9658 19.3159C60.9256 19.3159 60.9256 19.3561 60.8853 19.3963C60.7646 19.4768 60.6036 19.5573 60.6036 19.5171Z" fill="#FCD6D5"/>
<path d="M52.5555 22.9778C52.0726 23.6619 52.0324 24.4667 52.5153 24.8289C52.9982 25.1911 53.7628 24.9496 54.2859 24.2655C54.7688 23.5814 54.809 22.7766 54.3261 22.4144C53.803 22.0523 53.0384 22.2937 52.5555 22.9778Z" fill="#F8A488"/>
<path d="M52.636 24.7082C52.636 24.9899 52.8372 25.1911 53.1189 25.1911C53.4006 25.1911 53.6018 24.9899 53.6018 24.7082C53.6018 24.4265 53.4006 24.2253 53.1189 24.2253C52.8372 24.2656 52.636 24.4668 52.636 24.7082Z" fill="#FCD6D5"/>
<path d="M56.1771 54.6077C55.9759 55.7747 55.1711 56.8612 54.1248 56.8612C53.0785 56.8612 52.5554 55.8552 52.2335 54.7284C51.6701 52.7164 51.3481 49.4971 51.3481 47.8069C51.3481 45.9156 51.4689 42.4548 51.9115 40.4025C52.153 39.2757 52.6761 38.1892 54.1651 38.1892C55.493 38.1892 56.2979 39.155 56.4991 40.322C56.982 42.6963 56.9417 45.4327 56.9417 47.4045C56.9417 49.6983 56.6198 52.2335 56.1771 54.6077Z" fill="#F8A488"/>
<path d="M55.8954 55.5332C55.8954 55.5332 51.4688 63.7022 44.99 70.2616L43.5413 69.4165C43.5413 69.4165 48.5714 59.1147 52.6358 53.6419C52.6358 53.6419 53.8431 52.3541 55.171 53.1187C56.2978 53.7626 55.8954 55.5332 55.8954 55.5332Z" fill="#F8A488"/>
<path d="M45.2314 69.9397C45.2314 69.9397 44.7887 73.4407 40.8853 76.0967C40.5633 76.2979 39.7988 76.6198 39.5976 76.0162C39.4768 75.7345 39.5171 75.3723 39.839 74.6077C40 74.2456 40.3219 73.5615 41.0865 72.5152C40.5231 72.9176 39.6378 73.5615 39.3963 73.159C39.0744 72.5554 42.2133 70.7445 43.2193 69.7385C43.4607 69.4971 43.6619 69.3361 43.8632 69.0142L45.2314 69.9397Z" fill="#F8A488"/>
<path d="M48.33 38.4307C48.33 38.6722 48.169 38.8331 47.9276 38.8331C47.6861 38.8331 47.5251 38.6722 47.5251 38.4307C47.5251 38.1893 47.7264 38.0283 47.9276 38.0283C48.169 38.0283 48.33 38.1893 48.33 38.4307Z" fill="#FCD6D5"/>
<path d="M49.1749 38.3099C49.1749 38.5513 49.014 38.7123 48.7725 38.7123C48.5311 38.7123 48.3701 38.5111 48.3701 38.3099C48.3701 38.0684 48.5713 37.9075 48.7725 37.9075C48.9737 37.9075 49.1749 38.1087 49.1749 38.3099Z" fill="#FCD6D5"/>
<path d="M49.9799 38.149C49.9799 38.3905 49.8189 38.5514 49.5775 38.5514C49.336 38.5514 49.175 38.3905 49.175 38.149C49.175 37.9076 49.3763 37.7466 49.5775 37.7466C49.7787 37.7064 49.9799 37.9076 49.9799 38.149Z" fill="#FCD6D5"/>
<path d="M50.7445 37.9075C50.7445 38.149 50.5433 38.31 50.3421 38.31C50.1007 38.31 49.9397 38.1088 49.9397 37.9075C49.9397 37.6661 50.1007 37.5051 50.3421 37.5051C50.5433 37.5051 50.7445 37.6661 50.7445 37.9075Z" fill="#FCD6D5"/>
<path d="M51.5089 37.6661C51.5089 37.9075 51.3077 38.0685 51.1065 38.0685C50.8651 38.0685 50.7041 37.9075 50.7041 37.6661C50.7041 37.4246 50.8651 37.2637 51.1065 37.2637C51.348 37.2637 51.5089 37.4246 51.5089 37.6661Z" fill="#FCD6D5"/>
<path d="M52.2736 37.3441C52.2736 37.5855 52.1126 37.7465 51.8712 37.7465C51.6297 37.7465 51.4688 37.5453 51.4688 37.3441C51.4688 37.1026 51.67 36.9417 51.8712 36.9417C52.1126 36.9417 52.2736 37.1429 52.2736 37.3441Z" fill="#FCD6D5"/>
<path d="M52.9577 36.9417C52.9577 37.1832 52.7565 37.3441 52.5552 37.3441C52.3138 37.3441 52.1528 37.1429 52.1528 36.9417C52.1528 36.7003 52.354 36.5393 52.5552 36.5393C52.7565 36.5393 52.9577 36.7405 52.9577 36.9417Z" fill="#FCD6D5"/>
<path d="M53.6017 36.5797C53.6017 36.8211 53.4005 36.9821 53.1993 36.9821C52.9578 36.9821 52.7969 36.7809 52.7969 36.5797C52.7969 36.3382 52.9981 36.1772 53.1993 36.1772C53.4407 36.1772 53.6017 36.3382 53.6017 36.5797Z" fill="#FCD6D5"/>
<path d="M54.2858 36.1368C54.2858 36.3782 54.0846 36.5392 53.8834 36.5392C53.6419 36.5392 53.481 36.338 53.481 36.1368C53.481 35.8953 53.6822 35.7344 53.8834 35.7344C54.0846 35.7344 54.2858 35.8953 54.2858 36.1368Z" fill="#FCD6D5"/>
<path d="M54.4466 36.0163C54.6689 36.0163 54.849 35.8361 54.849 35.6138C54.849 35.3916 54.6689 35.2114 54.4466 35.2114C54.2244 35.2114 54.0442 35.3916 54.0442 35.6138C54.0442 35.8361 54.2244 36.0163 54.4466 36.0163Z" fill="#FCD6D5"/>
<path d="M55.0101 35.5333C55.2323 35.5333 55.4125 35.3532 55.4125 35.1309C55.4125 34.9087 55.2323 34.7285 55.0101 34.7285C54.7878 34.7285 54.6077 34.9087 54.6077 35.1309C54.6077 35.3532 54.7878 35.5333 55.0101 35.5333Z" fill="#FCD6D5"/>
<path d="M56.0563 34.6881C56.0563 34.9295 55.8551 35.0905 55.6539 35.0905C55.4124 35.0905 55.2515 34.8893 55.2515 34.6881C55.2515 34.4466 55.4527 34.2857 55.6539 34.2857C55.8551 34.2454 56.0563 34.4466 56.0563 34.6881Z" fill="#FCD6D5"/>
<path d="M56.6198 34.1248C56.6198 34.3663 56.4588 34.5272 56.2174 34.5272C55.9759 34.5272 55.8149 34.326 55.8149 34.1248C55.8149 33.8834 56.0162 33.7224 56.2174 33.7224C56.4186 33.7224 56.6198 33.8834 56.6198 34.1248Z" fill="#FCD6D5"/>
<path d="M47.7668 23.0986C47.4046 23.2193 47.0827 23.1388 46.7608 22.9778C46.5193 22.8169 46.1974 22.6962 45.9157 22.6559C45.3523 22.6157 44.7889 22.8169 44.4268 23.2595C44.5475 23.2193 44.6682 23.2193 44.7889 23.179C44.7084 23.2595 44.6682 23.34 44.6682 23.4607C44.6682 23.7424 44.9097 23.9436 45.1913 23.9436C45.473 23.9436 45.7145 23.7424 45.7145 23.4607C45.7145 23.2998 45.634 23.179 45.5133 23.0986C45.634 23.0986 45.7547 23.0583 45.8754 23.0986C46.3583 23.0986 46.7608 23.34 47.2437 23.5815C47.2034 23.501 47.1229 23.4205 47.0424 23.34C47.3241 23.2595 47.5656 23.2193 47.7668 23.0986Z" fill="#8C3F42"/>
<path d="M30.1811 21.5291C29.8592 21.2071 29.658 20.8852 29.4165 20.4828C29.2556 20.1609 29.0544 19.7987 28.8129 19.356C28.8129 19.356 28.7727 18.9536 28.8129 18.9134C28.8934 18.0281 29.2153 16.3782 28.7324 14.8892C29.1348 13.1186 27.8069 11.4687 27.4045 11.1468C22.656 7.36408 16.5795 9.89929 16.0966 10.1005C16.0966 10.1005 11.7908 11.4687 11.7908 15.6538C11.7908 19.3963 12.9175 22.4546 14.6479 23.7423C14.7686 24.9093 14.6077 26.1971 14.6077 26.1971C14.5272 27.525 13.5614 33.4003 13.5614 33.4003H22.5352C22.0926 32.3138 23.4608 28.2494 24.1851 27.847C24.4668 27.686 26.1972 27.7665 26.3582 27.7665C27.5654 28.0482 28.6519 27.4848 28.5715 26.5995C28.5312 26.2776 28.5312 26.0361 28.5715 25.8751C28.6922 25.5935 28.8934 25.5532 28.9739 25.3118C29.0141 25.2313 28.9739 25.1508 28.8531 25.1106C28.9739 24.7484 29.0544 24.2655 29.0946 23.8631C29.336 23.8228 29.336 23.6216 29.2958 23.5411C29.2556 23.4204 29.2153 23.1387 29.2153 23.018C29.2153 22.6558 29.2153 22.1327 29.7385 22.1327C30.7043 22.1729 30.3823 21.7303 30.1811 21.5291Z" fill="#F9AE97"/>
<path d="M15.8954 9.89929C15.9759 9.33591 15.3321 9.29567 15.3321 9.29567C15.8552 9.13471 16.5796 9.65784 16.5796 9.65784C16.4588 9.09446 17.2637 8.37012 17.2637 8.37012C16.7808 8.89326 17.2637 9.41639 17.2637 9.41639C20.5232 7.60553 25.0303 8.16891 27.646 10.9456C27.7264 11.0261 28.4508 12.1126 28.9337 13.1991C29.0142 13.3601 29.0544 13.5613 29.1349 13.7222C29.5373 13.5613 29.98 13.3601 30.2214 12.9576C30.2214 12.9576 30.1409 15.5733 28.2898 15.6136C27.2033 15.6941 25.8753 14.8892 24.6278 14.3661C22.3341 13.4003 21.0061 14.4063 20.6439 16.2977C20.4025 17.6256 20.3623 17.9878 20.0806 19.7182C19.9598 20.3621 19.9196 20.5633 19.7989 21.4888C19.7586 21.7705 19.3965 21.69 19.0745 21.69C18.6721 21.69 18.7124 21.2071 18.7124 21.0864C18.5916 19.8792 17.8673 19.2353 17.3039 18.9939C16.66 18.7122 16.4186 18.9536 16.1771 19.2353C15.6138 19.9194 16.2576 20.7242 17.0222 21.9315C17.5856 22.8168 15.6942 24.024 14.6882 24.024C13.9639 24.024 11.5091 19.3963 11.5091 15.6538C11.4286 11.3077 15.8954 9.89929 15.8954 9.89929Z" fill="#6E1F2C"/>
<path d="M18.2697 19.9598C18.7526 20.8451 18.6319 21.7706 18.0685 22.0523C17.4649 22.2938 16.6198 21.7706 16.1369 20.8853C15.654 20 15.7747 19.0745 16.3381 18.7928C16.9417 18.5513 17.7868 19.0745 18.2697 19.9598Z" fill="#F9AE97"/>
<path d="M27.7667 17.9879C27.7667 17.9879 27.5252 17.9074 27.2435 17.9074C27.0826 17.9074 26.9216 17.8269 26.7204 17.8671C26.5192 17.8671 26.318 17.9074 26.1168 17.9476C25.6741 17.9476 25.3119 18.1891 24.99 18.2696C24.6681 18.3903 24.4669 18.4708 24.4669 18.4708H24.4266C24.3864 18.4708 24.3461 18.4708 24.3059 18.4305C24.3059 18.3903 24.3059 18.35 24.3461 18.3098C24.3461 18.3098 24.5474 18.1891 24.829 18.0281C25.151 17.9074 25.5132 17.5855 25.9558 17.505C26.1973 17.4647 26.3985 17.3842 26.6399 17.344C26.8411 17.2635 27.0826 17.3038 27.2435 17.3038C27.6459 17.3038 27.8472 17.344 27.8472 17.344H27.8874C28.0886 17.3842 28.1691 17.5855 28.1288 17.7464C28.1691 17.9476 27.9679 18.0683 27.7667 17.9879C27.7667 18.0281 27.7667 18.0281 27.7667 17.9879Z" fill="#8C3F42"/>
<path d="M26.479 23.501C26.479 23.501 26.2778 23.4205 26.3181 23.6217C26.3583 23.8229 27.8875 25.0704 28.8935 25.1509L28.9338 25.0704C29.0545 24.7083 29.0947 24.3461 29.135 23.9437C29.0142 23.9437 27.4851 24.1449 26.479 23.501Z" fill="#FCD6D5"/>
<path d="M27.5252 19.3159C27.6459 19.3159 27.7667 19.2756 27.8874 19.2756C27.5252 18.9939 27.0021 18.9537 26.5594 19.1147C26.3582 19.2354 26.157 19.3561 25.996 19.5573C25.8351 19.7585 25.7546 19.9597 25.7144 20.1609C26.0765 19.8792 26.3582 19.5976 26.7204 19.4768H26.7606C26.7204 19.5171 26.7204 19.5976 26.7204 19.678C26.7204 19.9597 26.9618 20.1609 27.2435 20.1609C27.5252 20.1609 27.7667 19.9597 27.7667 19.678C27.7264 19.5171 27.6459 19.3963 27.5252 19.3159Z" fill="#8C3F42"/>
<path d="M7.52515 124.346L14.4869 124.306C14.7284 124.789 15.6942 126.599 17.3441 126.599H20.3622C22.6157 126.599 22.8974 128.491 22.9779 129.859L13.3199 129.899L12.6761 129.336L12.2334 129.899H7.56539L7.52515 124.346Z" fill="#070100"/>
<path d="M23.0987 69.2555L19.7989 95.5332L17.6661 126.278L7.1228 125.352L10.2616 95.171L10.3824 84.1851C10.2616 81.7303 10.5836 77.666 10.5836 77.666C8.45077 74.6478 9.41657 68.9738 9.65801 67.7263L23.0987 69.2555Z" fill="#1C1516"/>
<path d="M15.1309 124.346H22.0926C22.3341 124.829 23.2596 126.64 24.9498 126.64H27.9679C30.2214 126.64 30.5031 128.531 30.5433 129.939H20.8854L20.2415 129.376L19.7989 129.939H15.1309V124.346Z" fill="#1C1516"/>
<path d="M24.3461 69.5773L23.4205 96.0562L23.9839 126.559H13.8028L13.9235 96.6196L12.4748 84.7484C12.1127 82.3339 11.4286 79.5975 11.4286 79.5975C9.01408 76.8208 9.4165 70.8248 9.57746 69.5371H24.3461V69.5773Z" fill="#24201E"/>
<path d="M14.3662 25.5129L23.5815 29.9797L22.495 32.1125L14.3662 27.8469V25.5129Z" fill="#FCD6D5"/>
<path d="M10.7445 53.8832C10.7445 50.1005 10.7445 39.9194 10.7445 36.9013C10.7445 32.2735 14.326 27.8872 14.326 27.8872L22.5353 32.1126C22.5353 32.1126 25.3522 36.1769 25.3522 39.9999C25.3522 48.3701 25.3522 72.7967 25.3522 72.7967C23.7828 72.9576 10.8653 74.2454 7.60571 71.9918C7.60571 71.9516 10.7445 59.2353 10.7445 53.8832Z" fill="#221B18"/>
<path d="M13.481 29.0542L14.2858 26.4385L22.5353 32.0723C25.996 36.861 25.3924 41.9314 25.3924 41.9314V49.8992L21.2476 36.7403L22.5755 35.4526L20.7244 35.7343L13.481 29.0542Z" fill="#2E2726"/>
<path d="M35.3723 71.1469C35.3723 71.1469 39.0745 74.6881 42.0524 74.2857C42.6963 74.2052 43.2999 73.4809 42.9377 72.7565C42.4951 71.9114 41.65 71.4285 41.1268 70.8652C40.8854 70.6237 41.3683 70.4627 41.6902 70.5835C41.9719 70.7042 42.2938 70.7847 42.4146 70.664C42.6963 70.3823 42.1329 69.8189 41.7305 69.4567C40.9659 68.8128 38.3502 68.008 36.982 67.9678L35.3723 71.1469Z" fill="#F9AE97"/>
<path d="M13.2395 36.9416C12.8371 38.3098 12.7566 40.1207 12.7566 42.6961C12.7566 51.348 15.8149 57.2635 15.8149 57.2635L21.7707 54.8088C21.7707 54.8088 22.4145 48.2897 20.6037 41.8108C20.1208 40.1207 18.994 37.6257 18.1489 36.177C17.0222 34.1247 14.165 33.7223 13.2395 36.9416Z" fill="#2E2726"/>
<path d="M33.6418 70.9858L35.6539 72.0724L38.0684 67.6458L36.0563 66.519L33.6418 70.9858Z" fill="#FCD6D5"/>
<path d="M21.7706 54.8088C21.7706 54.8088 23.501 56.4587 28.6921 60.6438C31.0664 62.5352 32.9175 63.501 36.9416 66.6398L34.3662 71.7102C23.1388 64.5473 23.2595 64.5473 18.6318 61.5694C17.3843 60.7646 16.2173 59.6781 15.4929 56.6197L21.7706 54.8088Z" fill="#2E2726"/>
<defs>
<radialGradient id="paint0_radial_14_146" cx="0" cy="0" r="1" gradientUnits="userSpaceOnUse" gradientTransform="translate(47.6102 25.5583) rotate(180) scale(1.7324)">
<stop stop-color="#F69080"/>
<stop offset="1" stop-color="#F8A488"/>
</radialGradient>
</defs>
</svg>
